<svg xmlns="http://www.w3.org/2000/svg" width="32.698" height="19.794" viewBox="0 0 32.698 19.794">
  <g id="noun_Arrow_1920908" transform="translate(-2.5 -21.175)">
    <g id="Group_2" data-name="Group 2" transform="translate(2.5 21.175)">
      <path id="Path_3" data-name="Path 3" d="M2.5,24.659a3.525,3.525,0,0,1,1-2.443,3.468,3.468,0,0,1,4.886,0L18.845,32.642,29.305,22.181a3.455,3.455,0,1,1,4.886,4.886l-12.9,12.9a3.406,3.406,0,0,1-2.443,1,3.554,3.554,0,0,1-2.443-1L3.5,27.1A3.587,3.587,0,0,1,2.5,24.659Z" transform="translate(-2.5 -21.175)" fill="#fff"/>
    </g>
  </g>
</svg>
