<svg xmlns="http://www.w3.org/2000/svg" xmlns:xlink="http://www.w3.org/1999/xlink" width="355.41" height="186.492" viewBox="0 0 355.41 186.492">
  <defs>
    <linearGradient id="linear-gradient" x1="0.5" y1="1" x2="0.5" gradientUnits="objectBoundingBox">
      <stop offset="0" stop-color="gray" stop-opacity="0.251"/>
      <stop offset="0.54" stop-color="gray" stop-opacity="0.122"/>
      <stop offset="1" stop-color="gray" stop-opacity="0.102"/>
    </linearGradient>
    <linearGradient id="linear-gradient-2" x1="0.5" y1="1" x2="0.5" y2="-0.001" xlink:href="#linear-gradient"/>
  </defs>
  <g id="undraw_contact_us_15o2" transform="translate(0 0.359)">
    <g id="Group_25" data-name="Group 25" transform="translate(137.867 12.612)" opacity="0.1">
      <ellipse id="Ellipse_13" data-name="Ellipse 13" cx="3.69" cy="4.832" rx="3.69" ry="4.832" transform="translate(13.909 99.741)" fill="#3f3d56"/>
      <path id="Path_68" data-name="Path 68" d="M526.624,444.776a5.837,5.837,0,0,0,.772-2.954c0-2.669-1.654-4.832-3.694-4.832s-3.7,2.169-3.7,4.838a5.836,5.836,0,0,0,.772,2.954,6.035,6.035,0,0,0,0,5.905,6.035,6.035,0,0,0,0,5.905,5.817,5.817,0,0,0-.772,2.954c0,2.666,1.654,4.832,3.69,4.832s3.693-2.166,3.693-4.832a5.818,5.818,0,0,0-.772-2.954,6.035,6.035,0,0,0,0-5.905,6.035,6.035,0,0,0,0-5.905Z" transform="translate(-506.104 -360.876)" fill="#3f3d56"/>
      <ellipse id="Ellipse_14" data-name="Ellipse 14" cx="3.69" cy="4.832" rx="3.69" ry="4.832" transform="translate(13.909 70.216)" fill="#3f3d56"/>
      <ellipse id="Ellipse_15" data-name="Ellipse 15" cx="3.69" cy="4.832" rx="3.69" ry="4.832" transform="translate(13.909 64.311)" fill="#3f3d56"/>
      <path id="Path_69" data-name="Path 69" d="M480.934,231a17.2,17.2,0,0,1-1.375-2.023l9.7-1.592-10.487.078a17.712,17.712,0,0,1-.324-14.009l14.07,7.3-12.971-9.54a17.683,17.683,0,1,1,29.185,19.781,17.681,17.681,0,0,1,2.017,3.223l-12.592,6.557,13.422-4.5a17.683,17.683,0,0,1-2.85,16.6,17.68,17.68,0,1,1-27.791,0,17.68,17.68,0,0,1,0-21.863Z" transform="translate(-477.149 -202.271)" fill="#d8089d"/>
      <path id="Path_70" data-name="Path 70" d="M512.509,324.027a17.6,17.6,0,0,1-3.784,10.931,17.68,17.68,0,1,1-27.791,0C478.563,331.949,512.509,322.042,512.509,324.027Z" transform="translate(-477.149 -284.368)" opacity="0.1"/>
    </g>
    <g id="Group_26" data-name="Group 26" transform="translate(185.397 28.772)" opacity="0.1">
      <ellipse id="Ellipse_16" data-name="Ellipse 16" cx="2.76" cy="3.609" rx="2.76" ry="3.609" transform="translate(10.393 74.473)" fill="#3f3d56"/>
      <path id="Path_71" data-name="Path 71" d="M660.7,433.138a4.355,4.355,0,0,0,.574-2.205c0-1.994-1.235-3.612-2.756-3.612s-2.76,1.621-2.76,3.612a4.323,4.323,0,0,0,.577,2.205,4.507,4.507,0,0,0,0,4.413,4.507,4.507,0,0,0,0,4.413,4.323,4.323,0,0,0-.577,2.205c0,1.994,1.236,3.612,2.76,3.612s2.756-1.621,2.756-3.612a4.355,4.355,0,0,0-.574-2.205,4.54,4.54,0,0,0,0-4.413A4.54,4.54,0,0,0,660.7,433.138Z" transform="translate(-645.37 -370.501)" fill="#3f3d56"/>
      <ellipse id="Ellipse_17" data-name="Ellipse 17" cx="2.76" cy="3.609" rx="2.76" ry="3.609" transform="translate(10.393 52.409)" fill="#3f3d56"/>
      <ellipse id="Ellipse_18" data-name="Ellipse 18" cx="2.76" cy="3.609" rx="2.76" ry="3.609" transform="translate(10.393 47.996)" fill="#3f3d56"/>
      <path id="Path_72" data-name="Path 72" d="M626.548,273.508A12.634,12.634,0,0,1,625.52,272l7.248-1.19-7.838.058a13.244,13.244,0,0,1-.253-10.471l10.516,5.458-9.7-7.134A13.214,13.214,0,1,1,647.315,273.5a13.362,13.362,0,0,1,1.508,2.409l-9.4,4.887,10.03-3.366a13.218,13.218,0,0,1-2.13,12.407,13.211,13.211,0,1,1-20.754,0,13.211,13.211,0,0,1,0-16.337Z" transform="translate(-623.72 -252.103)" fill="#d8089d"/>
      <path id="Path_73" data-name="Path 73" d="M650.155,342.895a13.156,13.156,0,0,1-2.828,8.169,13.211,13.211,0,1,1-20.754,0C624.8,348.816,650.155,341.413,650.155,342.895Z" transform="translate(-623.733 -313.322)" opacity="0.1"/>
    </g>
    <g id="Group_27" data-name="Group 27" transform="translate(318.942 -0.359)" opacity="0.1">
      <ellipse id="Ellipse_19" data-name="Ellipse 19" cx="3.69" cy="4.832" rx="3.69" ry="4.832" transform="translate(14.158 99.741)" fill="#3f3d56"/>
      <path id="Path_74" data-name="Path 74" d="M1079.961,404.776a5.837,5.837,0,0,1-.772-2.954c0-2.669,1.654-4.832,3.694-4.832s3.69,2.163,3.69,4.832a5.836,5.836,0,0,1-.772,2.954,6.034,6.034,0,0,1,0,5.905,6.034,6.034,0,0,1,0,5.905,5.815,5.815,0,0,1,.772,2.954c0,2.666-1.654,4.832-3.69,4.832s-3.694-2.166-3.694-4.832a5.817,5.817,0,0,1,.772-2.954,6.034,6.034,0,0,1,0-5.905A6.034,6.034,0,0,1,1079.961,404.776Z" transform="translate(-1065.035 -320.876)" fill="#3f3d56"/>
      <ellipse id="Ellipse_20" data-name="Ellipse 20" cx="3.69" cy="4.832" rx="3.69" ry="4.832" transform="translate(14.158 70.216)" fill="#3f3d56"/>
      <ellipse id="Ellipse_21" data-name="Ellipse 21" cx="3.69" cy="4.832" rx="3.69" ry="4.832" transform="translate(14.158 64.311)" fill="#3f3d56"/>
      <path id="Path_75" data-name="Path 75" d="M1067.2,191a17.2,17.2,0,0,0,1.375-2.024l-9.7-1.592,10.487.078a17.712,17.712,0,0,0,.324-14.009l-14.071,7.3,12.971-9.54a17.683,17.683,0,1,0-29.185,19.781,17.686,17.686,0,0,0-2.017,3.223l12.592,6.557-13.422-4.5a17.683,17.683,0,0,0,2.85,16.6,17.68,17.68,0,1,0,27.791,0,17.68,17.68,0,0,0,0-21.863Z" transform="translate(-1035.541 -162.271)" fill="#d8089d"/>
      <path id="Path_76" data-name="Path 76" d="M1035.809,284.027a17.6,17.6,0,0,0,3.784,10.931,17.68,17.68,0,1,0,27.791,0C1069.755,291.949,1035.809,282.042,1035.809,284.027Z" transform="translate(-1035.722 -244.368)" opacity="0.1"/>
    </g>
    <g id="Group_28" data-name="Group 28" transform="translate(287.881 26.826)" opacity="0.1">
      <ellipse id="Ellipse_22" data-name="Ellipse 22" cx="2.76" cy="3.609" rx="2.76" ry="3.609" transform="translate(10.524 74.473)" fill="#3f3d56"/>
      <path id="Path_77" data-name="Path 77" d="M972.8,427.138a4.357,4.357,0,0,1-.574-2.205c0-1.994,1.236-3.612,2.756-3.612s2.76,1.621,2.76,3.612a4.323,4.323,0,0,1-.577,2.205,4.508,4.508,0,0,1,0,4.413,4.508,4.508,0,0,1,0,4.413,4.323,4.323,0,0,1,.577,2.205c0,1.994-1.236,3.612-2.76,3.612s-2.756-1.621-2.756-3.612a4.355,4.355,0,0,1,.574-2.205,4.54,4.54,0,0,1,0-4.413,4.54,4.54,0,0,1,0-4.413Z" transform="translate(-961.699 -364.501)" fill="#3f3d56"/>
      <ellipse id="Ellipse_23" data-name="Ellipse 23" cx="2.76" cy="3.609" rx="2.76" ry="3.609" transform="translate(10.524 52.409)" fill="#3f3d56"/>
      <ellipse id="Ellipse_24" data-name="Ellipse 24" cx="2.76" cy="3.609" rx="2.76" ry="3.609" transform="translate(10.524 47.996)" fill="#3f3d56"/>
      <path id="Path_78" data-name="Path 78" d="M963.365,267.508A12.631,12.631,0,0,0,964.393,266l-7.248-1.19,7.838.058a13.243,13.243,0,0,0,.253-10.471l-10.516,5.458,9.7-7.134A13.214,13.214,0,1,0,942.6,267.5a13.354,13.354,0,0,0-1.508,2.409l9.4,4.887-10.011-3.363a13.218,13.218,0,0,0,2.131,12.407,13.211,13.211,0,1,0,20.754,0,13.211,13.211,0,0,0,0-16.337Z" transform="translate(-939.756 -246.103)" fill="#d8089d"/>
      <path id="Path_79" data-name="Path 79" d="M939.786,336.895a13.156,13.156,0,0,0,2.828,8.169,13.211,13.211,0,1,0,20.754,0C965.145,342.816,939.786,335.413,939.786,336.895Z" transform="translate(-939.772 -307.322)" opacity="0.1"/>
    </g>
    <g id="Group_29" data-name="Group 29" transform="translate(2.37 -0.304)" opacity="0.1">
      <ellipse id="Ellipse_25" data-name="Ellipse 25" cx="3.69" cy="4.832" rx="3.69" ry="4.832" transform="translate(13.912 99.687)" fill="#3f3d56"/>
      <path id="Path_80" data-name="Path 80" d="M108.818,404.776a5.837,5.837,0,0,0,.772-2.954c0-2.669-1.654-4.832-3.69-4.832s-3.69,2.163-3.69,4.832a5.837,5.837,0,0,0,.769,2.954,6.054,6.054,0,0,0,0,5.905,6.054,6.054,0,0,0,0,5.905,5.814,5.814,0,0,0-.769,2.954c0,2.666,1.651,4.832,3.69,4.832s3.7-2.16,3.7-4.825a5.818,5.818,0,0,0-.772-2.954,6.035,6.035,0,0,0,0-5.905,6.035,6.035,0,0,0,0-5.905Z" transform="translate(-88.297 -320.93)" fill="#3f3d56"/>
      <ellipse id="Ellipse_26" data-name="Ellipse 26" cx="3.69" cy="4.832" rx="3.69" ry="4.832" transform="translate(13.912 70.161)" fill="#3f3d56"/>
      <ellipse id="Ellipse_27" data-name="Ellipse 27" cx="3.69" cy="4.832" rx="3.69" ry="4.832" transform="translate(13.912 64.256)" fill="#3f3d56"/>
      <path id="Path_81" data-name="Path 81" d="M63.1,191.112a17.616,17.616,0,0,1-1.375-2.023l9.7-1.592-10.5.094a17.712,17.712,0,0,1-.324-14.009l14.074,7.3-12.971-9.54a17.68,17.68,0,1,1,29.185,19.781,17.687,17.687,0,0,1,2.017,3.223l-12.6,6.541,13.425-4.5a17.7,17.7,0,0,1-2.854,16.6,17.68,17.68,0,1,1-27.791,0,17.68,17.68,0,0,1,0-21.863Z" transform="translate(-59.309 -162.439)" fill="#d8089d"/>
      <path id="Path_82" data-name="Path 82" d="M94.669,284.027a17.6,17.6,0,0,1-3.784,10.931,17.68,17.68,0,1,1-27.791,0C60.723,291.949,94.669,282.042,94.669,284.027Z" transform="translate(-59.309 -244.422)" opacity="0.1"/>
    </g>
    <g id="Group_30" data-name="Group 30" transform="translate(42.442 26.826)" opacity="0.1">
      <ellipse id="Ellipse_28" data-name="Ellipse 28" cx="2.76" cy="3.609" rx="2.76" ry="3.609" transform="translate(10.393 74.473)" fill="#3f3d56"/>
      <path id="Path_83" data-name="Path 83" d="M219.872,427.138a4.355,4.355,0,0,0,.574-2.205c0-1.994-1.232-3.612-2.756-3.612s-2.76,1.621-2.76,3.612a4.355,4.355,0,0,0,.577,2.205,4.508,4.508,0,0,0,0,4.413,4.508,4.508,0,0,0,0,4.413,4.355,4.355,0,0,0-.577,2.205c0,1.994,1.236,3.612,2.76,3.612s2.756-1.621,2.756-3.612a4.355,4.355,0,0,0-.574-2.205,4.54,4.54,0,0,0,0-4.413A4.54,4.54,0,0,0,219.872,427.138Z" transform="translate(-204.537 -364.501)" fill="#3f3d56"/>
      <ellipse id="Ellipse_29" data-name="Ellipse 29" cx="2.76" cy="3.609" rx="2.76" ry="3.609" transform="translate(10.393 52.409)" fill="#3f3d56"/>
      <ellipse id="Ellipse_30" data-name="Ellipse 30" cx="2.76" cy="3.609" rx="2.76" ry="3.609" transform="translate(10.393 47.996)" fill="#3f3d56"/>
      <path id="Path_84" data-name="Path 84" d="M185.708,267.508A13.042,13.042,0,0,1,184.68,266l7.248-1.19-7.838.058a13.244,13.244,0,0,1-.253-10.471l10.516,5.458-9.7-7.134A13.214,13.214,0,1,1,206.475,267.5a13.008,13.008,0,0,1,1.508,2.409l-9.4,4.887,10.03-3.366a13.218,13.218,0,0,1-2.131,12.407,13.211,13.211,0,1,1-20.754,0,13.211,13.211,0,0,1,0-16.337Z" transform="translate(-182.88 -246.103)" fill="#d8089d"/>
      <path id="Path_85" data-name="Path 85" d="M209.315,336.895a13.156,13.156,0,0,1-2.828,8.169,13.211,13.211,0,1,1-20.754,0C183.95,342.816,209.315,335.413,209.315,336.895Z" transform="translate(-182.893 -307.321)" opacity="0.1"/>
    </g>
    <ellipse id="Ellipse_31" data-name="Ellipse 31" cx="177.705" cy="2.873" rx="177.705" ry="2.873" transform="translate(0 156.796)" fill="#d8089d" opacity="0.1"/>
    <ellipse id="Ellipse_32" data-name="Ellipse 32" cx="177.705" cy="2.873" rx="177.705" ry="2.873" transform="translate(0 180.387)" fill="#d8089d" opacity="0.1"/>
    <ellipse id="Ellipse_33" data-name="Ellipse 33" cx="177.705" cy="2.873" rx="177.705" ry="2.873" transform="translate(0 107.561)" fill="#d8089d" opacity="0.1"/>
    <ellipse id="Ellipse_34" data-name="Ellipse 34" cx="177.705" cy="2.873" rx="177.705" ry="2.873" transform="translate(0 132.177)" fill="#d8089d" opacity="0.1"/>
    <path id="Path_86" data-name="Path 86" d="M823.74,256.539a5.935,5.935,0,0,0-3.437.376,5.075,5.075,0,0,1-4.131,0,5.8,5.8,0,0,0-4.864.094,3,3,0,0,1-1.4.35c-1.972,0-3.609-1.985-3.95-4.6a3.853,3.853,0,0,0,.973-1.06,5.534,5.534,0,0,1,9.881-.036,3.787,3.787,0,0,0,3.272,1.8h.052C821.723,253.443,823.082,254.7,823.74,256.539Z" transform="translate(-561.467 -220.991)" fill="#d8089d" opacity="0.1"/>
    <path id="Path_87" data-name="Path 87" d="M829.729,233.061l-3.184,2.017,1.946-3.515a3.145,3.145,0,0,0-1.926-.684h-.052a3.68,3.68,0,0,1-.649-.049l-1.1.684.464-.843a3.823,3.823,0,0,1-1.891-1.433l-1.946,1.226,1.219-2.218a5.651,5.651,0,0,0-4.326-2.186,5.934,5.934,0,0,0-4.955,3.055,3.7,3.7,0,0,1-3.272,1.764h-.107c-2.218,0-4.015,2.513-4.015,5.613s1.8,5.617,4.015,5.617a3.045,3.045,0,0,0,1.4-.35,5.792,5.792,0,0,1,4.864-.1,5.042,5.042,0,0,0,4.131,0,5.811,5.811,0,0,1,4.819.094,3.016,3.016,0,0,0,1.381.344c2.218,0,4.015-2.516,4.015-5.617A7.111,7.111,0,0,0,829.729,233.061Z" transform="translate(-561.453 -205.733)" fill="#d8089d" opacity="0.1"/>
    <path id="Path_88" data-name="Path 88" d="M417.339,256.069a4.164,4.164,0,0,0-2.409.263,3.541,3.541,0,0,1-2.889,0,4.047,4.047,0,0,0-3.4.068,2.147,2.147,0,0,1-.973.243c-1.378,0-2.526-1.388-2.766-3.22a2.7,2.7,0,0,0,.691-.743,3.875,3.875,0,0,1,6.917-.026,2.656,2.656,0,0,0,2.293,1.258h.036A2.874,2.874,0,0,1,417.339,256.069Z" transform="translate(-290.462 -222.275)" fill="#d8089d" opacity="0.1"/>
    <path id="Path_89" data-name="Path 89" d="M421.525,239.643l-2.228,1.414,1.352-2.461a2.189,2.189,0,0,0-1.346-.48h-.039a2.432,2.432,0,0,1-.46-.036l-.756.48.324-.59a2.692,2.692,0,0,1-1.323-1l-1.352.856.856-1.55a3.959,3.959,0,0,0-3.029-1.534,4.148,4.148,0,0,0-3.467,2.14,2.594,2.594,0,0,1-2.293,1.236h-.075c-1.553,0-2.811,1.758-2.811,3.93s1.258,3.93,2.811,3.93a2.108,2.108,0,0,0,.973-.246,4.053,4.053,0,0,1,3.4-.065,3.483,3.483,0,0,0,2.893.019,4.067,4.067,0,0,1,3.373.065,2.1,2.1,0,0,0,.973.24c1.55,0,2.808-1.761,2.808-3.93A4.971,4.971,0,0,0,421.525,239.643Z" transform="translate(-290.448 -211.599)" fill="#d8089d" opacity="0.1"/>
    <path id="Path_90" data-name="Path 90" d="M321.59,334.479a4.157,4.157,0,0,1,2.406.263,3.548,3.548,0,0,0,2.893,0,4.06,4.06,0,0,1,3.4.065,2.1,2.1,0,0,0,.973.246c1.378,0,2.526-1.391,2.763-3.223a2.644,2.644,0,0,1-.687-.743,3.879,3.879,0,0,0-6.92-.023,2.656,2.656,0,0,1-2.289,1.258h-.036A2.9,2.9,0,0,0,321.59,334.479Z" transform="translate(-234.168 -275.258)" fill="#d8089d" opacity="0.1"/>
    <path id="Path_91" data-name="Path 91" d="M307.432,318.09l2.231,1.414-1.355-2.458a2.2,2.2,0,0,1,1.349-.483h.036a2.768,2.768,0,0,0,.464-.032l.756.477-.324-.587a2.689,2.689,0,0,0,1.32-1l1.352.856-.843-1.553a3.956,3.956,0,0,1,3.029-1.531,4.152,4.152,0,0,1,3.467,2.14,2.594,2.594,0,0,0,2.289,1.236h.078c1.55,0,2.808,1.761,2.808,3.93s-1.258,3.93-2.808,3.93a2.1,2.1,0,0,1-.973-.243,4.047,4.047,0,0,0-3.4-.068,3.522,3.522,0,0,1-1.453.324,3.567,3.567,0,0,1-1.44-.3,4.06,4.06,0,0,0-3.369.065,2.1,2.1,0,0,1-.973.24c-1.553,0-2.811-1.758-2.811-3.93A5.007,5.007,0,0,1,307.432,318.09Z" transform="translate(-224.213 -264.609)" fill="#d8089d" opacity="0.1"/>
    <path id="Path_92" data-name="Path 92" d="M708.727,580.939c.846-1.569-.113-3.489-1.216-4.887s-2.452-2.854-2.422-4.634c.042-2.559,2.76-4.073,4.929-5.428a24.094,24.094,0,0,0,4.426-3.567A6.529,6.529,0,0,0,715.8,560.6a7.37,7.37,0,0,0,.409-3.243q-.139-5.477-.542-10.948" transform="translate(-493.306 -422.201)" fill="none" stroke="#3f3d56" stroke-miterlimit="10" stroke-width="4"/>
    <path id="Path_93" data-name="Path 93" d="M733.823,537.916a3.992,3.992,0,0,0-1.994-3.272l-.9,1.767.029-2.14a3.992,3.992,0,1,0,2.86,3.645Z" transform="translate(-507.33 -413.888)" fill="#d8089d"/>
    <path id="Path_94" data-name="Path 94" d="M712.774,617.118a3.992,3.992,0,0,1-7.536-1.621,3.891,3.891,0,0,1,.259-1.621,4,4,0,0,1,7.458.042l-2.494,2.03,2.743-.649A3.969,3.969,0,0,1,712.774,617.118Z" transform="translate(-493.403 -466.071)" fill="#d8089d"/>
    <path id="Path_95" data-name="Path 95" d="M713.7,588.638a3.992,3.992,0,0,1-1.265-7.831l-.023,1.644.9-1.79h0a3.993,3.993,0,1,1,.373,7.977Z" transform="translate(-496.3 -445.342)" fill="#d8089d"/>
    <path id="Path_96" data-name="Path 96" d="M743.552,568.755a3.992,3.992,0,1,1,1.764-7.458l-.7,1.946,1.437-1.42a3.992,3.992,0,0,1-2.51,6.93Z" transform="translate(-516.46 -431.908)" fill="#d8089d"/>
    <path id="Path_97" data-name="Path 97" d="M733.271,543.542c-.921.1-1.816.386-2.743.444a2.968,2.968,0,0,1-2.523-.882,12.82,12.82,0,0,1-.739-1.3,2.84,2.84,0,0,0-1.005-.947,3.992,3.992,0,1,0,7.458,2.653C733.573,543.516,733.42,543.526,733.271,543.542Z" transform="translate(-507.317 -418.45)" opacity="0.1"/>
    <path id="Path_98" data-name="Path 98" d="M743.588,573.514a3.992,3.992,0,0,1-3.8-5.694,2.954,2.954,0,0,1,.8.8,13.534,13.534,0,0,0,.791,1.32,3.257,3.257,0,0,0,2.649.924c.963-.049,1.894-.324,2.854-.405.133,0,.266-.019.4-.023a3.992,3.992,0,0,1-3.7,3.074Z" transform="translate(-516.496 -436.668)" opacity="0.1"/>
    <path id="Path_99" data-name="Path 99" d="M713.7,593.56a3.992,3.992,0,0,1-3.83-5.62,3.241,3.241,0,0,1,.846.811,13.386,13.386,0,0,0,.866,1.346,3.615,3.615,0,0,0,2.824.973c1.018-.042,1.946-.263,2.919-.324a4,4,0,0,1-3.625,2.815Z" transform="translate(-496.303 -450.263)" opacity="0.1"/>
    <path id="Path_100" data-name="Path 100" d="M712.774,622.413a3.992,3.992,0,0,1-7.536-1.621,3.892,3.892,0,0,1,.259-1.621,3.988,3.988,0,0,1,.876.781c.379.461.629.973,1.07,1.417a4.988,4.988,0,0,0,3.3,1.161A16.785,16.785,0,0,0,712.774,622.413Z" transform="translate(-493.403 -471.366)" opacity="0.1"/>
    <path id="Path_101" data-name="Path 101" d="M98.727,508.939c.846-1.569-.113-3.489-1.216-4.887s-2.452-2.86-2.422-4.634c.042-2.559,2.76-4.073,4.929-5.428a24.093,24.093,0,0,0,4.426-3.567A6.529,6.529,0,0,0,105.8,488.6a7.371,7.371,0,0,0,.409-3.243q-.143-5.477-.542-10.948" transform="translate(-81.116 -373.549)" fill="none" stroke="#3f3d56" stroke-miterlimit="10" stroke-width="4"/>
    <path id="Path_102" data-name="Path 102" d="M123.823,465.916a3.992,3.992,0,0,0-1.994-3.272l-.895,1.767.029-2.14a3.992,3.992,0,1,0,2.86,3.645Z" transform="translate(-95.14 -365.236)" fill="#d8089d"/>
    <path id="Path_103" data-name="Path 103" d="M102.774,545.118a3.992,3.992,0,0,1-7.536-1.621,3.891,3.891,0,0,1,.259-1.621,4,4,0,0,1,7.458.042l-2.494,2.03,2.743-.648a3.969,3.969,0,0,1-.431,1.819Z" transform="translate(-81.213 -417.419)" fill="#d8089d"/>
    <path id="Path_104" data-name="Path 104" d="M103.7,516.638a3.992,3.992,0,0,1-1.265-7.831l-.023,1.644.9-1.79h0a3.993,3.993,0,1,1,.373,7.977Z" transform="translate(-84.11 -396.69)" fill="#d8089d"/>
    <path id="Path_105" data-name="Path 105" d="M133.552,496.755a3.992,3.992,0,1,1,1.764-7.458l-.7,1.946,1.437-1.42a3.992,3.992,0,0,1-2.51,6.93Z" transform="translate(-104.27 -383.256)" fill="#d8089d"/>
    <path id="Path_106" data-name="Path 106" d="M123.271,471.542c-.921.1-1.816.386-2.743.444a2.968,2.968,0,0,1-2.523-.882,12.8,12.8,0,0,1-.739-1.3,2.841,2.841,0,0,0-1.005-.947,3.992,3.992,0,1,0,7.458,2.653C123.573,471.516,123.421,471.526,123.271,471.542Z" transform="translate(-95.127 -369.798)" opacity="0.1"/>
    <path id="Path_107" data-name="Path 107" d="M133.588,501.514a3.992,3.992,0,0,1-3.8-5.694,2.954,2.954,0,0,1,.8.8,13.529,13.529,0,0,0,.791,1.32,3.257,3.257,0,0,0,2.649.924c.963-.049,1.894-.324,2.854-.405.133,0,.266-.019.4-.023A3.992,3.992,0,0,1,133.588,501.514Z" transform="translate(-104.306 -388.016)" opacity="0.1"/>
    <path id="Path_108" data-name="Path 108" d="M103.7,521.56a3.992,3.992,0,0,1-3.83-5.62,3.242,3.242,0,0,1,.846.811,13.373,13.373,0,0,0,.866,1.346,3.615,3.615,0,0,0,2.824.973c1.018-.042,1.946-.263,2.919-.324A4,4,0,0,1,103.7,521.56Z" transform="translate(-84.113 -401.611)" opacity="0.1"/>
    <path id="Path_109" data-name="Path 109" d="M102.774,550.413a3.992,3.992,0,0,1-7.536-1.621,3.891,3.891,0,0,1,.259-1.621,3.987,3.987,0,0,1,.876.781c.379.461.629.973,1.07,1.417a4.988,4.988,0,0,0,3.3,1.161A16.747,16.747,0,0,0,102.774,550.413Z" transform="translate(-81.213 -422.714)" opacity="0.1"/>
    <path id="Path_110" data-name="Path 110" d="M496.9,426.583c-.846-1.566.113-3.486,1.219-4.884s2.448-2.854,2.419-4.634c-.039-2.562-2.756-4.073-4.929-5.428a24,24,0,0,1-4.423-3.567,6.415,6.415,0,0,1-1.362-1.819,7.474,7.474,0,0,1-.409-3.243q.146-5.477.542-10.948" transform="translate(-347.566 -317.903)" fill="none" stroke="#3f3d56" stroke-miterlimit="10" stroke-width="4"/>
    <path id="Path_111" data-name="Path 111" d="M478.381,383.556a3.989,3.989,0,0,1,1.991-3.272l.9,1.767-.026-2.14a4.093,4.093,0,0,1,1.313-.159,3.992,3.992,0,1,1-4.173,3.8Z" transform="translate(-340.112 -309.584)" fill="#d8089d"/>
    <path id="Path_112" data-name="Path 112" d="M499.421,462.691a3.992,3.992,0,1,0-.191-3.214l2.494,2.03-2.743-.649A3.97,3.97,0,0,0,499.421,462.691Z" transform="translate(-354.034 -361.7)" fill="#d8089d"/>
    <path id="Path_113" data-name="Path 113" d="M498.49,434.277a3.992,3.992,0,0,0,1.268-7.831l.019,1.644-.9-1.79h0a3.992,3.992,0,0,0-4.183,3.791,3.944,3.944,0,0,0,.172,1.362,3.989,3.989,0,0,0,3.629,2.824Z" transform="translate(-351.132 -341.036)" fill="#d8089d"/>
    <path id="Path_114" data-name="Path 114" d="M468.589,414.374a3.992,3.992,0,1,0-1.767-7.458l.707,1.946-1.453-1.391a3.96,3.96,0,0,0-1.3,2.756,3.863,3.863,0,0,0,.1,1.1A3.989,3.989,0,0,0,468.589,414.374Z" transform="translate(-330.92 -327.59)" fill="#d8089d"/>
    <path id="Path_115" data-name="Path 115" d="M479.117,389.182c.921.1,1.816.386,2.74.444a2.982,2.982,0,0,0,2.526-.882,12.774,12.774,0,0,0,.736-1.3,2.85,2.85,0,0,1,1.008-.947,3.992,3.992,0,1,1-7.458,2.649C478.816,389.153,478.965,389.165,479.117,389.182Z" transform="translate(-340.31 -314.146)" opacity="0.1"/>
    <path id="Path_116" data-name="Path 116" d="M468.83,419.134a4,4,0,0,0,3.8-5.694,2.968,2.968,0,0,0-.8.8,13.529,13.529,0,0,1-.791,1.32,3.246,3.246,0,0,1-2.646.924c-.963-.049-1.894-.324-2.854-.405-.133,0-.269-.019-.4-.023A3.989,3.989,0,0,0,468.83,419.134Z" transform="translate(-331.161 -332.35)" opacity="0.1"/>
    <path id="Path_117" data-name="Path 117" d="M498.865,439.2a3.989,3.989,0,0,0,3.83-5.62,3.187,3.187,0,0,0-.843.811,13.374,13.374,0,0,1-.866,1.346,3.622,3.622,0,0,1-2.828.973c-1.021-.042-1.946-.263-2.919-.324a3.989,3.989,0,0,0,3.625,2.815Z" transform="translate(-351.507 -345.959)" opacity="0.1"/>
    <path id="Path_118" data-name="Path 118" d="M500.34,468.053a3.992,3.992,0,0,0,7.28-3.243,3.83,3.83,0,0,0-.876.781c-.379.46-.649.973-1.07,1.417a5,5,0,0,1-3.308,1.161A17.488,17.488,0,0,1,500.34,468.053Z" transform="translate(-354.953 -367.062)" opacity="0.1"/>
    <circle id="Ellipse_35" data-name="Ellipse 35" cx="32.415" cy="32.415" r="32.415" transform="translate(220.435 44.579)" fill="#3f3d56"/>
    <path id="Path_119" data-name="Path 119" d="M814.859,378.383a24.563,24.563,0,0,0-5.188-3.467c-1.553-.746-2.124-.733-3.223.062-.914.649-1.508,1.274-2.559,1.044s-3.133-1.8-5.146-3.807-3.577-4.076-3.8-5.143.392-1.647,1.047-2.562c.791-1.1.814-1.67.062-3.223a24.87,24.87,0,0,0-3.47-5.188c-1.138-1.135-1.385-.885-2.007-.649a11.608,11.608,0,0,0-1.839.973,5.547,5.547,0,0,0-2.205,2.332c-.444.947-.947,2.7,1.638,7.306a40.76,40.76,0,0,0,7.167,9.556h0a40.821,40.821,0,0,0,9.589,7.18c4.6,2.594,6.359,2.079,7.306,1.638a5.443,5.443,0,0,0,2.328-2.205,11.457,11.457,0,0,0,.973-1.839C815.744,379.768,816,379.515,814.859,378.383Z" transform="translate(-548.094 -293.029)" fill="#d8089d"/>
    <path id="Path_120" data-name="Path 120" d="M764.124,300.86a32.428,32.428,0,1,0,32.412,32.417A32.428,32.428,0,0,0,764.124,300.86Zm0,60.517a28.105,28.105,0,1,1,28.105-28.105,28.105,28.105,0,0,1-28.105,28.105Z" transform="translate(-511.274 -256.277)" opacity="0.1"/>
    <circle id="Ellipse_36" data-name="Ellipse 36" cx="32.415" cy="32.415" r="32.415" transform="translate(145.964 93.815)" fill="#3f3d56"/>
    <path id="Path_121" data-name="Path 121" d="M581.431,522.3l-9.706,9.874a.175.175,0,0,0,0,.253l6.81,7.241a1.172,1.172,0,1,1-1.657,1.657l-6.774-7.215a.185.185,0,0,0-.259,0l-1.651,1.667a7.254,7.254,0,0,1-5.188,2.182,7.413,7.413,0,0,1-5.279-2.244l-1.586-1.621a.185.185,0,0,0-.259,0l-6.758,7.2a1.172,1.172,0,1,1-1.657-1.657l6.784-7.225a.2.2,0,0,0,0-.253l-9.706-9.874a.178.178,0,0,0-.3.126v19.758a2.893,2.893,0,0,0,2.883,2.883H578.86a2.892,2.892,0,0,0,2.883-2.883V522.423a.178.178,0,0,0-.311-.126Z" transform="translate(-384.617 -405.86)" fill="#d8089d"/>
    <path id="Path_122" data-name="Path 122" d="M565.3,529.126a4.91,4.91,0,0,0,3.541-1.459l14.135-14.388a2.821,2.821,0,0,0-1.784-.649h-31.76a2.8,2.8,0,0,0-1.784.649l14.139,14.388A4.89,4.89,0,0,0,565.3,529.126Z" transform="translate(-386.921 -399.375)" fill="#d8089d"/>
    <path id="Path_123" data-name="Path 123" d="M533.214,452.69a32.428,32.428,0,1,0,32.412,32.417A32.428,32.428,0,0,0,533.214,452.69Zm0,60.517A28.105,28.105,0,1,1,561.319,485.1,28.105,28.105,0,0,1,533.214,513.207Z" transform="translate(-355.243 -358.872)" opacity="0.1"/>
    <circle id="Ellipse_37" data-name="Ellipse 37" cx="32.415" cy="32.415" r="32.415" transform="translate(69.036 69.607)" fill="#3f3d56"/>
    <path id="Path_124" data-name="Path 124" d="M337.923,430.16,325,459.974l1.206,1.206,11.719-5.169,11.719,5.169,1.206-1.206Z" transform="translate(-236.472 -343.648)" fill="#d8089d"/>
    <path id="Path_125" data-name="Path 125" d="M297.244,378a32.409,32.409,0,1,0,.005,0Zm0,60.517a23.116,23.116,0,1,1,0,.013Z" transform="translate(-195.793 -308.402)" opacity="0.1"/>
    <path id="Path_126" data-name="Path 126" d="M808.675,574.54q-.441-1.077-.9-2.147a6.372,6.372,0,0,0-1.106-1.91,2.026,2.026,0,0,0-.649-.486,2.767,2.767,0,0,0-.846-.169,6.756,6.756,0,0,0-1.33-.036c-.172-.052-.366-.12-.558-.2a4.631,4.631,0,0,0,3.45-4.3c0-.065,0-.133,0-.2a4.621,4.621,0,0,0-4.6-4.64,4.54,4.54,0,0,0-2.416.691,4.336,4.336,0,0,0-4.864,2.345,5.36,5.36,0,0,0-1.654,3.989c0,.068,0,.139,0,.2.084,2.52,1.712,4.54,3.768,4.744a2.161,2.161,0,0,0-.6.4,3.69,3.69,0,0,0-.8,2.445l-.049.649-1.09.389a.2.2,0,0,0-.049.353l1.041.743v.185a.812.812,0,0,0,.019.211,1.489,1.489,0,0,0-.4.574,2.652,2.652,0,0,0-.094,1.051l.039.9a7.1,7.1,0,0,0,.276,2.014c.136.4.726,1.372,1.151,1.378a41.955,41.955,0,0,0-.5,5.545c-.049.049.088.094.324.133.233,1.79,1,6.81,2.348,9.018a19.012,19.012,0,0,1,.509,2.192,41.988,41.988,0,0,0,.9,6.187,31.5,31.5,0,0,1,.872,5.046.5.5,0,0,0-.36.37c-.256.772-1.916,1.946-1.916,1.946a8.024,8.024,0,0,0-1.433.918c-.522.47-.5.9,1.816.629,4.475-.516,5.24-1.946,5.24-1.946s-.071-.24-.178-.551a5.992,5.992,0,0,0-.587-1.385c-.065-.062-.13.042-.208.2a27.763,27.763,0,0,1-.3-6.262,10.16,10.16,0,0,0-.512-3.739,7.077,7.077,0,0,1,0-2.448c.256-1.031-1.022-6.061-1.022-6.061l-.733-3.7a1.064,1.064,0,0,1,.2.431l.019.075.019.107a.2.2,0,0,0,.052.1c.5,2.075,1.868,7.825,1.868,8.668a13.754,13.754,0,0,0,1.278,3.609s.509,4.255,1.4,5.928a8.6,8.6,0,0,1,.665,3.966h0a3.673,3.673,0,0,1-.409,1.317,3.133,3.133,0,0,0-.483.84l-.029.062s-.383.775-.126.9a6.282,6.282,0,0,0,3.068.386s.512-.649.512-.9a4.055,4.055,0,0,0-.058-.46c-.094-.61-.269-1.57-.272-1.579a4.427,4.427,0,0,0-.324-1.57l-.13-3.609a16.661,16.661,0,0,0-.895-7.222,11.984,11.984,0,0,1-.509-2.964c.139-.645-.256-7.478-.256-7.478l-.039-.1a7.386,7.386,0,0,1,.039-1.45,19.255,19.255,0,0,0-.512-4.9,4.252,4.252,0,0,1-.182-1.067c.029-.269.117-1.057.237-2.036a36.632,36.632,0,0,0,3.768-.324.47.47,0,0,0,.324-.13.453.453,0,0,0,.075-.263A12.578,12.578,0,0,0,808.675,574.54Zm-2.572,4.089c.133-.924.276-1.819.418-2.484l.019.058a18.06,18.06,0,0,1,.616,2.043A6.943,6.943,0,0,1,806.1,578.629Z" transform="translate(-552.842 -431.695)" fill="url(#linear-gradient)"/>
    <path id="Path_127" data-name="Path 127" d="M802.37,648.153s.765,6.884,2.422,9.56a18.553,18.553,0,0,1,.509,2.166,40.944,40.944,0,0,0,.892,6.116,33.742,33.742,0,0,1,.892,5.227s1.784,2.036,2.422.383a26.854,26.854,0,0,1-.383-6.628,9.983,9.983,0,0,0-.509-3.7,6.915,6.915,0,0,1,0-2.419c.253-1.021-1.021-5.989-1.021-5.989l-1.018-4.971Z" transform="translate(-559.041 -490.779)" fill="#be6f72"/>
    <path id="Path_128" data-name="Path 128" d="M811.894,720.9s-.765,1.4-5.224,1.91c-2.315.263-2.332-.156-1.81-.623a8.075,8.075,0,0,1,1.427-.908s1.657-1.145,1.91-1.91,1.148-.127,1.148-.127c1.274,1.91,1.531-.512,1.784-.256a5.752,5.752,0,0,1,.587,1.365C811.823,720.663,811.894,720.9,811.894,720.9Z" transform="translate(-560.536 -538.804)" fill="#ff6f61"/>
    <path id="Path_129" data-name="Path 129" d="M811.894,723.788s-.765,1.4-5.224,1.91c-2.315.263-2.332-.156-1.81-.623.363.23,1.1.324,2.572-.269,2.124-.869,3.664-1.372,4.284-1.566C811.823,723.548,811.894,723.788,811.894,723.788Z" transform="translate(-560.536 -541.688)" opacity="0.1"/>
    <path id="Path_130" data-name="Path 130" d="M816.051,664.976a9.982,9.982,0,0,0-.509-3.7,6.912,6.912,0,0,1,0-2.419c.253-1.022-1.021-5.989-1.021-5.989L813.5,647.9l-.882.052,1.009,4.919s1.274,4.968,1.021,5.989a6.918,6.918,0,0,0,0,2.419,9.689,9.689,0,0,1,.509,3.7,26.857,26.857,0,0,0,.383,6.628,1.116,1.116,0,0,1-.37.525.833.833,0,0,0,1.261-.525A26.857,26.857,0,0,1,816.051,664.976Z" transform="translate(-565.967 -490.78)" opacity="0.1"/>
    <path id="Path_131" data-name="Path 131" d="M802.049,562.42a4.54,4.54,0,0,0-2.406.684,4.329,4.329,0,0,0-4.864,2.319,5.279,5.279,0,0,0-1.651,3.943c0,2.711,1.826,4.906,4.076,4.906a4.116,4.116,0,0,0,3.694-2.824,4.479,4.479,0,0,0,1.148.149,4.589,4.589,0,0,0,0-9.177Z" transform="translate(-552.795 -433.019)" fill="#3f3d56"/>
    <path id="Path_132" data-name="Path 132" d="M821.577,650.65l.383,1.018s.383,6.755.253,7.393a12.043,12.043,0,0,0,.512,2.919,16.315,16.315,0,0,1,.892,7.134l.126,3.567s.509,1.4.256,1.657-2.176-.227-2.176-.227a9.088,9.088,0,0,0-.649-4.332c-.9-1.657-1.4-5.863-1.4-5.863a13.527,13.527,0,0,1-1.274-3.567c0-1.018-2.04-9.3-2.04-9.3Z" transform="translate(-568.562 -492.638)" fill="#be6f72"/>
    <path id="Path_133" data-name="Path 133" d="M801.56,633.543s.13-4.589.648-5.989a9.515,9.515,0,0,0,.568-2.033s7.714,1.394,8.353.885a11.065,11.065,0,0,0,.256,1.91,18.324,18.324,0,0,1,.509,4.845c-.139,1.531,0,1.527,0,1.527s-5.227.765-5.354,0-.509-.762-.509-.762S801.307,633.783,801.56,633.543Z" transform="translate(-558.487 -475.657)" fill="#3f3d56"/>
    <g id="Group_31" data-name="Group 31" transform="translate(243.073 150.748)" opacity="0.1">
      <path id="Path_134" data-name="Path 134" d="M805.786,649.713s-3.223-.088-4.2-.263v.263c-.253.253,4.462.383,4.462.383a.325.325,0,0,1,.175.071C806.055,649.713,805.786,649.713,805.786,649.713Z" transform="translate(-801.58 -642.575)"/>
      <path id="Path_135" data-name="Path 135" d="M821.674,630.16a11.06,11.06,0,0,1-.256-1.91.549.549,0,0,1-.217.078,6.448,6.448,0,0,0,.217,1.45,20.237,20.237,0,0,1,.509,4.845c-.139,1.531,0,1.527,0,1.527s-4.135.606-5.137.2a1.551,1.551,0,0,0,.039.182c.126.765,5.354,0,5.354,0s-.13,0,0-1.527A18.947,18.947,0,0,0,821.674,630.16Z" transform="translate(-811.858 -628.25)"/>
      <path id="Path_136" data-name="Path 136" d="M805.786,649.713s-3.223-.088-4.2-.263v.263c-.253.253,4.462.383,4.462.383a.325.325,0,0,1,.175.071C806.055,649.713,805.786,649.713,805.786,649.713Z" transform="translate(-801.58 -642.575)"/>
      <path id="Path_137" data-name="Path 137" d="M821.674,630.16a11.06,11.06,0,0,1-.256-1.91.549.549,0,0,1-.217.078,6.448,6.448,0,0,0,.217,1.45,20.237,20.237,0,0,1,.509,4.845c-.139,1.531,0,1.527,0,1.527s-4.135.606-5.137.2a1.551,1.551,0,0,0,.039.182c.126.765,5.354,0,5.354,0s-.13,0,0-1.527A18.947,18.947,0,0,0,821.674,630.16Z" transform="translate(-811.858 -628.25)"/>
    </g>
    <path id="Path_138" data-name="Path 138" d="M813.183,584.45a1.691,1.691,0,0,0,.486.629,1.09,1.09,0,0,0,.457.2c-.285.165-.6.289-.882.454a15.678,15.678,0,0,0-1.3.973,2.639,2.639,0,0,1-1.488.577,1.822,1.822,0,0,0,.208-1.813,1.693,1.693,0,0,1-.227-.629,1.13,1.13,0,0,1,.626-.843c.243-.165.493-.324.746-.483.2-.123.5-.383.746-.373s.279.23.324.457A3.6,3.6,0,0,0,813.183,584.45Z" transform="translate(-564.494 -447.019)" fill="#be6f72"/>
    <path id="Path_139" data-name="Path 139" d="M813.183,584.45a1.691,1.691,0,0,0,.486.629,1.09,1.09,0,0,0,.457.2c-.285.165-.6.289-.882.454a15.678,15.678,0,0,0-1.3.973,2.639,2.639,0,0,1-1.488.577,1.822,1.822,0,0,0,.208-1.813,1.693,1.693,0,0,1-.227-.629,1.13,1.13,0,0,1,.626-.843c.243-.165.493-.324.746-.483.2-.123.5-.383.746-.373s.279.23.324.457A3.6,3.6,0,0,0,813.183,584.45Z" transform="translate(-564.494 -447.019)" opacity="0.1"/>
    <circle id="Ellipse_38" data-name="Ellipse 38" cx="2.931" cy="2.931" r="2.931" transform="translate(248.745 139.087)" fill="#be6f72"/>
    <path id="Path_140" data-name="Path 140" d="M833.263,723.323c0,.256-.509.892-.509.892a6.31,6.31,0,0,1-3.058-.383c-.256-.126.126-.892.126-.892l.029-.062a3.1,3.1,0,0,1,.483-.83,3.628,3.628,0,0,0,.405-1.3c.791-1.3,2.2.561,2.2.561s.178.973.272,1.563A4.451,4.451,0,0,1,833.263,723.323Z" transform="translate(-577.446 -539.696)" fill="#ff6f61"/>
    <path id="Path_141" data-name="Path 141" d="M833.263,728.694c0,.256-.509.892-.509.892a6.311,6.311,0,0,1-3.058-.383c-.256-.126.126-.892.126-.892l.029-.062a6.161,6.161,0,0,0,2.776.571l.58-.58C833.24,728.457,833.263,728.629,833.263,728.694Z" transform="translate(-577.446 -545.067)" opacity="0.1"/>
    <circle id="Ellipse_39" data-name="Ellipse 39" cx="2.867" cy="2.867" r="2.867" transform="translate(242.946 133.033)" fill="#be6f72"/>
    <path id="Path_142" data-name="Path 142" d="M800.965,598.542a3.6,3.6,0,0,0-.8,2.416l-.1,1.268a6.4,6.4,0,0,0-.023,1.028c0,.211.052.425.071.649s.026.506.029.762v1.874a2.211,2.211,0,0,0,.208,1.125.765.765,0,0,0,.973.35,1.109,1.109,0,0,0,.4-.623,9.68,9.68,0,0,0,.649-2.374c.026-.282.029-.564.055-.846s.075-.577.117-.863c.182-1.193.263-2.4.344-3.6.023-.357.344-1.761-.123-1.916-.227-.075-.7.159-.914.237a2.575,2.575,0,0,0-.892.516Z" transform="translate(-557.464 -456.909)" fill="#be6f72"/>
    <path id="Path_143" data-name="Path 143" d="M800.965,598.542a3.6,3.6,0,0,0-.8,2.416l-.1,1.268a6.4,6.4,0,0,0-.023,1.028c0,.211.052.425.071.649s.026.506.029.762v1.874a2.211,2.211,0,0,0,.208,1.125.765.765,0,0,0,.973.35,1.109,1.109,0,0,0,.4-.623,9.68,9.68,0,0,0,.649-2.374c.026-.282.029-.564.055-.846s.075-.577.117-.863c.182-1.193.263-2.4.344-3.6.023-.357.344-1.761-.123-1.916-.227-.075-.7.159-.914.237a2.575,2.575,0,0,0-.892.516Z" transform="translate(-557.464 -456.909)" opacity="0.1"/>
    <path id="Path_144" data-name="Path 144" d="M809.9,588.16a15.722,15.722,0,0,1-3.441,2.04s-.756.863-.885,1.07-.389,2.5-.648,3.009a2.435,2.435,0,0,0,0,2.8,4.859,4.859,0,0,1,.126,1.531c-.126.383-.59,1.783-.169,1.848s1.7.953,2.844.7,5.419.973,5.419.973.707-6.567,1.219-7.728l-1.148-.383s-3.184-1.91-1.274-4.841C811.945,589.181,810.154,588.8,809.9,588.16Z" transform="translate(-560.46 -450.412)" fill="#ff6f61"/>
    <path id="Path_145" data-name="Path 145" d="M796.67,610.109l2.633,1.865a.2.2,0,0,0,.23,0l.713-.535a.2.2,0,0,0,0-.3l-2.027-1.8a.2.2,0,0,0-.2-.039l-1.3.467a.2.2,0,0,0-.052.347Z" transform="translate(-555.134 -464.686)" fill="#3f3d56"/>
    <path id="Path_146" data-name="Path 146" d="M798.881,618.694a7.057,7.057,0,0,1-.276-1.988l-.039-.9a2.594,2.594,0,0,1,.094-1.038,1.7,1.7,0,0,1,1.093-.957,3.773,3.773,0,0,1,1.488-.107.382.382,0,0,1,.191.052.356.356,0,0,1,.1.175,1.174,1.174,0,0,1,.058.937.972.972,0,0,1-.3.308c-.354.253-.765.422-1.1.7a.4.4,0,0,0-.149.188.439.439,0,0,0,0,.2,3.271,3.271,0,0,0,.169.522.516.516,0,0,0,.146.22c.062.052.143.071.208.12.139.114.431.263.415.441a14.517,14.517,0,0,1-.59,2.017C800.1,620.844,799.069,619.242,798.881,618.694Z" transform="translate(-556.46 -467.654)" fill="#be6f72"/>
    <g id="Group_32" data-name="Group 32" transform="translate(246.445 143.802)" opacity="0.1">
      <path id="Path_147" data-name="Path 147" d="M812.051,628.186h-.071a2.185,2.185,0,0,0,.833,0h.081A2.917,2.917,0,0,0,812.051,628.186Z" transform="translate(-811.98 -621.24)"/>
      <path id="Path_148" data-name="Path 148" d="M830.222,606.83c-.457,1.028-1.132,6.6-1.252,7.7.448.117.743.2.743.2s.7-6.55,1.213-7.711Z" transform="translate(-823.461 -606.83)"/>
    </g>
    <path id="Path_149" data-name="Path 149" d="M817.262,594.325a.973.973,0,0,0,.418.632,5.616,5.616,0,0,1,.743.752,5.327,5.327,0,0,1,.736,1.475,18.085,18.085,0,0,1,.613,2.017c-1.621.752-3.463.717-5.188,1.213a4.14,4.14,0,0,0-1.946,1.151,2.681,2.681,0,0,0-.717,2.111.221.221,0,0,0,.266.217,1.945,1.945,0,0,0,1.19-.409,5.661,5.661,0,0,0,.911-.9,1.466,1.466,0,0,1,.649-.48,10.614,10.614,0,0,1,2.919-.285,36.771,36.771,0,0,0,4.349-.344.35.35,0,0,0,.389-.389,12.475,12.475,0,0,0-1.3-5.555q-.438-1.067-.9-2.124a6.291,6.291,0,0,0-1.1-1.887,1.944,1.944,0,0,0-.648-.48,2.742,2.742,0,0,0-.869-.162,6.164,6.164,0,0,0-1.424-.026,3.036,3.036,0,0,0-.136.736,6.376,6.376,0,0,0,.785,2.487C817.048,594.2,817.188,594.209,817.262,594.325Z" transform="translate(-565.486 -452.216)" fill="#be6f72"/>
    <path id="Path_150" data-name="Path 150" d="M811.734,606.67a2.377,2.377,0,0,0-.324,1.239,1.671,1.671,0,0,0,.081.506,1.641,1.641,0,0,0,1.034.973" transform="translate(-565.149 -462.92)" fill="none" stroke="#000" stroke-miterlimit="10" stroke-width="1" opacity="0.1"/>
    <path id="Path_151" data-name="Path 151" d="M805.269,571.691a1.49,1.49,0,0,0-.47.075,3.109,3.109,0,0,0-2.594-1.1c-1.55,0-2.805.8-2.805,1.787s1.255,1.784,2.805,1.784a3.946,3.946,0,0,0,1.683-.357,1.527,1.527,0,1,0,1.375-2.192Z" transform="translate(-557.034 -438.594)" fill="#3f3d56"/>
    <path id="Path_152" data-name="Path 152" d="M805.382,576.921a1.524,1.524,0,0,1-1.375-.866,3.947,3.947,0,0,1-1.683.357c-1.547,0-2.8-.8-2.8-1.783a1.061,1.061,0,0,1,0-.178,1.208,1.208,0,0,0-.143.561c0,.973,1.255,1.784,2.8,1.784a3.946,3.946,0,0,0,1.683-.357,1.527,1.527,0,0,0,2.876-.379A1.521,1.521,0,0,1,805.382,576.921Z" transform="translate(-557.02 -441.148)" opacity="0.1"/>
    <path id="Path_153" data-name="Path 153" d="M794.754,566.176a4.329,4.329,0,0,1,4.864-2.319,4.585,4.585,0,0,1,6.979,3.522V567A4.585,4.585,0,0,0,799.6,563.1a4.329,4.329,0,0,0-4.864,2.319,5.28,5.28,0,0,0-1.651,3.943v.383A5.188,5.188,0,0,1,794.754,566.176Z" transform="translate(-552.768 -433.019)" opacity="0.1"/>
    <path id="Path_154" data-name="Path 154" d="M880.807,505.056c.846-1.566-.114-3.489-1.219-4.887s-2.448-2.85-2.419-4.634c.039-2.559,2.756-4.07,4.929-5.428a23.965,23.965,0,0,0,4.423-3.567,6.461,6.461,0,0,0,1.362-1.819,7.472,7.472,0,0,0,.409-3.243q-.143-5.48-.542-10.948" transform="translate(-609.584 -370.927)" fill="none" stroke="#3f3d56" stroke-miterlimit="10" stroke-width="4"/>
    <path id="Path_155" data-name="Path 155" d="M905.893,462a3.985,3.985,0,0,0-1.991-3.269l-.895,1.767.026-2.14a3.916,3.916,0,0,0-1.313-.159,3.992,3.992,0,1,0,4.173,3.8Z" transform="translate(-623.601 -362.592)" fill="#d8089d"/>
    <path id="Path_156" data-name="Path 156" d="M884.854,541.138a3.992,3.992,0,1,1,.191-3.217l-2.494,2.03,2.743-.649a3.969,3.969,0,0,1-.441,1.835Z" transform="translate(-609.681 -414.707)" fill="#d8089d"/>
    <path id="Path_157" data-name="Path 157" d="M885.771,512.725a3.992,3.992,0,0,1-1.268-7.831l-.019,1.644.9-1.787h0a3.993,3.993,0,1,1,.373,7.977Z" transform="translate(-612.57 -394.048)" fill="#d8089d"/>
    <path id="Path_158" data-name="Path 158" d="M915.628,492.844a3.992,3.992,0,1,1,1.767-7.458l-.707,1.946,1.453-1.394a3.969,3.969,0,0,1,1.3,2.756,3.853,3.853,0,0,1-.1,1.1A3.992,3.992,0,0,1,915.628,492.844Z" transform="translate(-632.737 -380.614)" fill="#d8089d"/>
    <path id="Path_159" data-name="Path 159" d="M905.349,467.622c-.921.1-1.819.389-2.743.448a2.974,2.974,0,0,1-2.526-.885,12.413,12.413,0,0,1-.736-1.3,2.868,2.868,0,0,0-1.005-.947,3.992,3.992,0,1,0,7.458,2.649C905.647,467.6,905.5,467.606,905.349,467.622Z" transform="translate(-623.593 -367.15)" opacity="0.1"/>
    <path id="Path_160" data-name="Path 160" d="M915.663,497.6a4,4,0,0,1-3.8-5.694,2.954,2.954,0,0,1,.8.8,12.787,12.787,0,0,0,.791,1.32,3.248,3.248,0,0,0,2.646.927c.963-.045,1.894-.324,2.854-.405.133,0,.269-.023.4-.026A3.992,3.992,0,0,1,915.663,497.6Z" transform="translate(-632.771 -385.374)" opacity="0.1"/>
    <path id="Path_161" data-name="Path 161" d="M885.772,517.626a3.989,3.989,0,0,1-3.83-5.626,3.288,3.288,0,0,1,.843.811c.324.438.5.944.866,1.346a3.7,3.7,0,0,0,2.828.992c1.021-.023,1.946-.266,2.918-.34A3.992,3.992,0,0,1,885.772,517.626Z" transform="translate(-612.571 -398.949)" opacity="0.1"/>
    <path id="Path_162" data-name="Path 162" d="M884.9,546.5a4,4,0,0,1-7.28-3.243,3.911,3.911,0,0,1,.876.781c.383.464.632.973,1.07,1.42a5.014,5.014,0,0,0,3.308,1.161,17.477,17.477,0,0,0,2.027-.12Z" transform="translate(-609.728 -420.072)" opacity="0.1"/>
    <path id="Path_163" data-name="Path 163" d="M1039.807,657.056c.846-1.566-.113-3.489-1.219-4.887s-2.448-2.85-2.419-4.634c.039-2.559,2.756-4.07,4.929-5.428a23.964,23.964,0,0,0,4.423-3.567,6.462,6.462,0,0,0,1.362-1.819,7.472,7.472,0,0,0,.409-3.243q-.14-5.48-.542-10.948" transform="translate(-717.023 -473.637)" fill="none" stroke="#3f3d56" stroke-miterlimit="10" stroke-width="4"/>
    <path id="Path_164" data-name="Path 164" d="M1064.926,614a3.985,3.985,0,0,0-1.991-3.269l-.9,1.767.026-2.14a3.916,3.916,0,0,0-1.3-.159,3.992,3.992,0,1,0,4.173,3.8Z" transform="translate(-731.075 -465.303)" fill="#d8089d"/>
    <path id="Path_165" data-name="Path 165" d="M1043.854,693.138a3.992,3.992,0,1,1,.191-3.217l-2.494,2.03,2.743-.648A3.968,3.968,0,0,1,1043.854,693.138Z" transform="translate(-717.12 -517.417)" fill="#d8089d"/>
    <path id="Path_166" data-name="Path 166" d="M1044.771,664.725a3.992,3.992,0,0,1-1.268-7.831l-.02,1.644.9-1.787h0a3.993,3.993,0,1,1,.373,7.977Z" transform="translate(-720.009 -496.758)" fill="#d8089d"/>
    <path id="Path_167" data-name="Path 167" d="M1074.628,644.844a3.992,3.992,0,1,1,1.767-7.458l-.707,1.946,1.453-1.394a3.969,3.969,0,0,1,1.3,2.756,3.851,3.851,0,0,1-.1,1.1A3.992,3.992,0,0,1,1074.628,644.844Z" transform="translate(-740.177 -483.324)" fill="#d8089d"/>
    <path id="Path_168" data-name="Path 168" d="M1064.349,619.622c-.921.1-1.819.389-2.743.448a2.974,2.974,0,0,1-2.526-.885,12.353,12.353,0,0,1-.736-1.3,2.87,2.87,0,0,0-1.005-.947,3.992,3.992,0,1,0,7.458,2.649C1064.647,619.6,1064.5,619.606,1064.349,619.622Z" transform="translate(-731.032 -469.859)" opacity="0.1"/>
    <path id="Path_169" data-name="Path 169" d="M1074.663,649.6a4,4,0,0,1-3.8-5.694,2.956,2.956,0,0,1,.8.8,12.751,12.751,0,0,0,.791,1.32,3.248,3.248,0,0,0,2.646.927c.963-.045,1.894-.324,2.854-.405.133,0,.269-.023.4-.026A3.992,3.992,0,0,1,1074.663,649.6Z" transform="translate(-740.211 -488.083)" opacity="0.1"/>
    <path id="Path_170" data-name="Path 170" d="M1044.772,669.626a3.989,3.989,0,0,1-3.83-5.626,3.291,3.291,0,0,1,.843.811c.324.438.5.944.866,1.346a3.7,3.7,0,0,0,2.828.992c1.021-.023,1.946-.266,2.918-.34A3.992,3.992,0,0,1,1044.772,669.626Z" transform="translate(-720.01 -501.659)" opacity="0.1"/>
    <path id="Path_171" data-name="Path 171" d="M1043.9,698.5a4,4,0,0,1-7.28-3.243,3.907,3.907,0,0,1,.875.782c.383.464.649.973,1.07,1.42a5.014,5.014,0,0,0,3.308,1.161A17.474,17.474,0,0,0,1043.9,698.5Z" transform="translate(-717.168 -522.782)" opacity="0.1"/>
    <path id="Path_172" data-name="Path 172" d="M439.4,568.936a3.181,3.181,0,0,0-1.268-2.568,175.722,175.722,0,0,0-5.6-6.43h0a3.158,3.158,0,0,0-.46-.107h-.548A3.651,3.651,0,0,0,428,562.95c-1.138-.263-2.179.078-2.37.8a.973.973,0,0,0,.032.577,2.509,2.509,0,0,0,1.673,1.355l.11.032.165.042h.036a2.867,2.867,0,0,0-.272,1.229,2.834,2.834,0,0,0,1.527,2.529l-.075.045a1.012,1.012,0,0,0-.246.344,5.144,5.144,0,0,0-.477,1.148c-.081.344-.094.7-.195,1.041-.188.626-.668,1.154-.723,1.806-.026.292.023.649-.185.837a1,1,0,0,1-.165.117,1.338,1.338,0,0,0-.36.379,1.26,1.26,0,0,1-.253.363c-.188.139-.5.126-.587.344s.146.473.091.71-.256.282-.4.415a1.444,1.444,0,0,0-.347.649,2.127,2.127,0,0,1-1.751-.447,3.277,3.277,0,0,1,.182.648,2.841,2.841,0,0,0-.944-.473,2.98,2.98,0,0,1-1.005-.746l.538-.075-2.377-3.629-.7-.146.629,1.21a.386.386,0,0,0-.214.256,1.1,1.1,0,0,0-.023.412,7.374,7.374,0,0,0,.162.973l.182.85c.016.078.036.159.058.237a2.233,2.233,0,0,0-.7.078,6.124,6.124,0,0,0-1.462-.347.809.809,0,0,0-.324,0,.84.84,0,0,0-.308.25,9.979,9.979,0,0,0-1.086,1.531,53.43,53.43,0,0,1-4.585,6.177c-1.1.448-2.215.872-3.327,1.3l-2.393.914a3.628,3.628,0,0,1-1.485.324c-.227,0-.509-.049-.649.146a1.364,1.364,0,0,0-.146.324L403,587.5h0a2.834,2.834,0,0,0-.574-1.057.363.363,0,0,0-.269.208c-.058.107-.094.224-.162.324-.126.188-.35.279-.509.438s-.259.405-.435.568a1.72,1.72,0,0,1-.814.324,5.135,5.135,0,0,0-1.274.483,2.055,2.055,0,0,1-.47.217,1.767,1.767,0,0,1-.555.019l-1.265-.094a1,1,0,0,0-.34.016.649.649,0,0,0-.4.649,1.022,1.022,0,0,0,.4.7,2.576,2.576,0,0,0,.72.373,21.136,21.136,0,0,0,3.372,1v.256a5.755,5.755,0,0,0,2.594.616.4.4,0,0,0,.195-.036.428.428,0,0,0,.162-.253,10.432,10.432,0,0,0,.506-2.484h0a1.3,1.3,0,0,0,.457-.117c.435-.12.869.178,1.32.227a3.605,3.605,0,0,0,1.592-.46l.227-.075a2.492,2.492,0,0,1-.525.5c-.217.156-.461.272-.671.435a4.619,4.619,0,0,1-.571.441,3.586,3.586,0,0,1-.438.169,2.887,2.887,0,0,0-.626.324,1.268,1.268,0,0,0-.425.415.623.623,0,0,0-.036.584.616.616,0,0,0,.418.292,1.714,1.714,0,0,0,.516,0c.687-.052,1.372-.113,2.056-.175a5.493,5.493,0,0,0,.859-.123c.149-.036.3-.084.447-.126a4,4,0,0,1,.782-.117.651.651,0,0,1,.227.023c.159.052.272.214.435.247a.649.649,0,0,0,.324-.042,7.23,7.23,0,0,1,1.521-.162.628.628,0,0,0,.59-.263c.1-.208-.084-.542-.169-.817a2.5,2.5,0,0,1-.071-.538,3.37,3.37,0,0,0-.376-1.278,3.329,3.329,0,0,1-.282-.584,14.746,14.746,0,0,0,2.8-1.42,5,5,0,0,1,1.6-.769,4.34,4.34,0,0,1,2,.233,45.613,45.613,0,0,1,4.6,1.6c.717.3,1.43.606,2.169.83a3.383,3.383,0,0,0,.772.749,3.567,3.567,0,0,0,1.67.457,21.889,21.889,0,0,0,2.351.088,3.965,3.965,0,0,0,1.751-.324,1.8,1.8,0,0,0,.366-.243,1.453,1.453,0,0,0,1.154-.425,2.8,2.8,0,0,0,.879-1.388c.191-.739.045-1.621.5-2.212.12-.162.279-.292.4-.454a1.278,1.278,0,0,0,.208-.749.15.15,0,0,1,.019-.029,2.746,2.746,0,0,0,.195-.746,4.26,4.26,0,0,1,.211-.59,18.214,18.214,0,0,0,.6-1.748,10.205,10.205,0,0,0,.279-1.2c.049-.324.078-.648.1-.973a6.043,6.043,0,0,1,.3-1.5,12.22,12.22,0,0,0,.681-3.593v-.071a2.409,2.409,0,0,0,2.134-2.452,2.559,2.559,0,0,0-.224-1.047,3.243,3.243,0,0,0,.435-1.634Zm-11.6,14.1c.036.127.078.25.12.373-.191-.185-.376-.376-.567-.564.075.026.152.049.224.078a1.208,1.208,0,0,1,.214.113Zm-.918-.623c-1.122-.973-2.419-1.728-3.567-2.672.626.308,1.236.668,1.839,1.012q1.073.613,2.176,1.177a1.781,1.781,0,0,1-.457.483Zm.477-2.452.055-.055v.386l-.3-.1a2.686,2.686,0,0,0,.237-.227Zm-9.868,2.627a9.286,9.286,0,0,0,1.193-1.7,11.463,11.463,0,0,0,1.78,1.988C419.475,582.744,418.483,582.636,417.491,582.585Z" transform="translate(-284.397 -431.269)" fill="url(#linear-gradient-2)"/>
    <path id="Path_173" data-name="Path 173" d="M415.35,438.25l.707.143,2.409,3.564-1.06.143Z" transform="translate(-280.661 -296.377)" fill="#2f2e41"/>
    <path id="Path_174" data-name="Path 174" d="M414.49,645.386a13.867,13.867,0,0,0,.707,1.839,17.5,17.5,0,0,0,2.351-.671,7.4,7.4,0,0,0-.49-.649,2.417,2.417,0,0,0-.665-.509,1.827,1.827,0,0,0-.807,0C415.223,645.386,414.856,645.393,414.49,645.386Z" transform="translate(-296.942 -489.057)" fill="#fbbebe"/>
    <path id="Path_175" data-name="Path 175" d="M403.774,644.207a1.466,1.466,0,0,1-.8-.914,2.945,2.945,0,0,0-.613-1.093.35.35,0,0,0-.272.2c-.058.1-.094.221-.159.324-.13.185-.357.276-.519.431s-.259.4-.435.558a1.725,1.725,0,0,1-.82.324,5.322,5.322,0,0,0-1.3.477,2.239,2.239,0,0,1-.477.214,1.89,1.89,0,0,1-.558,0l-1.278-.091a1,1,0,0,0-.324,0,.619.619,0,0,0-.405.649.973.973,0,0,0,.405.687,2.694,2.694,0,0,0,.726.37,21.381,21.381,0,0,0,3.424.973v.253a5.929,5.929,0,0,0,2.61.606.442.442,0,0,0,.195-.032.428.428,0,0,0,.162-.253,10.118,10.118,0,0,0,.535-2.776,2.214,2.214,0,0,0-.055-.717c-.071-.23.169-.133-.052-.224" transform="translate(-284.319 -486.928)" fill="#2f2e41"/>
    <path id="Path_176" data-name="Path 176" d="M443.523,631.434c-3.788.227-7.53-.882-11.324-1a5.527,5.527,0,0,0-1.407.088,7.092,7.092,0,0,0-1.394.542c-2.033.947-4.138,1.732-6.239,2.513l-2.416.9a3.658,3.658,0,0,1-1.495.324c-.23,0-.512-.049-.649.143a2.365,2.365,0,0,0,.052,2.092c.084.211.227.441.454.464a1.319,1.319,0,0,0,.461-.117c.438-.117.876.178,1.33.227a3.737,3.737,0,0,0,1.605-.454,13.932,13.932,0,0,1,2.75-.467,12.32,12.32,0,0,0,4.306-1.787,5.027,5.027,0,0,1,1.605-.759,4.442,4.442,0,0,1,2.02.23,46.356,46.356,0,0,1,4.634,1.576,21.6,21.6,0,0,0,2.419.885,8.756,8.756,0,0,0,5.425-.324c.606-.24,1.265-.649,1.3-1.317.023-.373-.269-.7-.46-1.021-.123-.2-.25-.409-.383-.606C445.465,632.624,444.674,631.366,443.523,631.434Z" transform="translate(-299.566 -478.97)" fill="#2f2e41"/>
    <path id="Path_177" data-name="Path 177" d="M443.523,631.434c-3.788.227-7.53-.882-11.324-1a5.527,5.527,0,0,0-1.407.088,7.092,7.092,0,0,0-1.394.542c-2.033.947-4.138,1.732-6.239,2.513l-2.416.9a3.658,3.658,0,0,1-1.495.324c-.23,0-.512-.049-.649.143a2.365,2.365,0,0,0,.052,2.092c.084.211.227.441.454.464a1.319,1.319,0,0,0,.461-.117c.438-.117.876.178,1.33.227a3.737,3.737,0,0,0,1.605-.454,13.932,13.932,0,0,1,2.75-.467,12.32,12.32,0,0,0,4.306-1.787,5.027,5.027,0,0,1,1.605-.759,4.442,4.442,0,0,1,2.02.23,46.356,46.356,0,0,1,4.634,1.576,21.6,21.6,0,0,0,2.419.885,8.756,8.756,0,0,0,5.425-.324c.606-.24,1.265-.649,1.3-1.317.023-.373-.269-.7-.46-1.021-.123-.2-.25-.409-.383-.606C445.465,632.624,444.674,631.366,443.523,631.434Z" transform="translate(-299.566 -478.97)" opacity="0.1"/>
    <path id="Path_178" data-name="Path 178" d="M436.92,642.714q.888.3,1.793.558c.324-.555.973-.94,1.112-1.576a.149.149,0,0,0,0-.084.156.156,0,0,0-.068-.062,3.4,3.4,0,0,0-1.407-.412c-.389-.023-.567.383-.743.668C437.539,641.933,437.079,642.776,436.92,642.714Z" transform="translate(-312.099 -486.21)" fill="#fbbebe"/>
    <path id="Path_179" data-name="Path 179" d="M427.275,642.905a1.3,1.3,0,0,1-.872-.574c-.081-.146-.172-.344-.34-.324s-.224.195-.259.347a9.727,9.727,0,0,1-.49,1.683,3.158,3.158,0,0,1-1.047,1.378c-.221.152-.464.266-.681.428a4.677,4.677,0,0,1-.574.435,3.413,3.413,0,0,1-.441.162,3.051,3.051,0,0,0-.629.324,1.248,1.248,0,0,0-.431.412.593.593,0,0,0-.032.574.613.613,0,0,0,.418.285,1.761,1.761,0,0,0,.522,0c.691-.049,1.381-.11,2.072-.172a6,6,0,0,0,.866-.12l.451-.123a3.589,3.589,0,0,1,.788-.117.613.613,0,0,1,.23.023c.159.052.272.211.438.243a.732.732,0,0,0,.324-.042,7.157,7.157,0,0,1,1.534-.159.647.647,0,0,0,.6-.259c.13-.253-.084-.535-.172-.807a2.593,2.593,0,0,1-.071-.529,3.223,3.223,0,0,0-.379-1.258c-.175-.324-.415-.681-.292-1.025a.973.973,0,0,0,.117-.353C428.871,642.779,427.593,642.977,427.275,642.905Z" transform="translate(-301.624 -486.797)" fill="#2f2e41"/>
    <path id="Path_180" data-name="Path 180" d="M471.771,607.86a2.958,2.958,0,0,1-1.511-1.5c-.062-.143-.113-.3-.175-.438a3.328,3.328,0,0,0-.9-1.255.444.444,0,0,0-.324-.14.354.354,0,0,0-.243.263,1,1,0,0,0-.026.405,7.219,7.219,0,0,0,.162.947l.185.837a1.835,1.835,0,0,0,.113.373,1.3,1.3,0,0,0,.308.366c.169.156.34.3.512.454a1.757,1.757,0,0,0,.324.224,1.885,1.885,0,0,0,.574.169,4.883,4.883,0,0,1,2.153.83v-.623a.823.823,0,0,0-.162-.451A2.874,2.874,0,0,0,471.771,607.86Z" transform="translate(-333.492 -461.474)" fill="#fbbebe"/>
    <path id="Path_181" data-name="Path 181" d="M471.771,607.86a2.958,2.958,0,0,1-1.511-1.5c-.062-.143-.113-.3-.175-.438a3.328,3.328,0,0,0-.9-1.255.444.444,0,0,0-.324-.14.354.354,0,0,0-.243.263,1,1,0,0,0-.026.405,7.219,7.219,0,0,0,.162.947l.185.837a1.835,1.835,0,0,0,.113.373,1.3,1.3,0,0,0,.308.366c.169.156.34.3.512.454a1.757,1.757,0,0,0,.324.224,1.885,1.885,0,0,0,.574.169,4.883,4.883,0,0,1,2.153.83v-.623a.823.823,0,0,0-.162-.451A2.874,2.874,0,0,0,471.771,607.86Z" transform="translate(-333.492 -461.474)" opacity="0.1"/>
    <ellipse id="Ellipse_40" data-name="Ellipse 40" cx="0.921" cy="0.927" rx="0.921" ry="0.927" transform="translate(145.069 138.131)" fill="#2f2e41"/>
    <path id="Path_182" data-name="Path 182" d="M487.162,590.423a1,1,0,0,0-.726.1,1.008,1.008,0,0,0-.25.34,4.945,4.945,0,0,0-.48,1.128c-.081.324-.094.691-.2,1.025-.188.616-.671,1.138-.726,1.78-.026.289.023.626-.188.82a1.186,1.186,0,0,1-.165.12,1.246,1.246,0,0,0-.363.373,1.223,1.223,0,0,1-.256.353c-.188.139-.5.126-.59.324s.146.467.091.7-.259.279-.405.409a1.417,1.417,0,0,0-.35.649,2.163,2.163,0,0,1-1.764-.438,5.616,5.616,0,0,1,.276,2.017.824.824,0,0,1-.162.623,11.234,11.234,0,0,1,2.163.376,1.492,1.492,0,0,0,.944,0,1.575,1.575,0,0,0,.435-.344,2.77,2.77,0,0,0,.892-1.375,8.066,8.066,0,0,0,.016-.931,5.255,5.255,0,0,1,.237-1.132,13.46,13.46,0,0,0,.412-2.328c.042-.486.464-.876.684-1.3a6.351,6.351,0,0,0,.872-2.594C487.571,590.828,487.467,590.455,487.162,590.423Z" transform="translate(-341.742 -451.922)" fill="#2f2e41"/>
    <path id="Path_183" data-name="Path 183" d="M487.162,590.423a1,1,0,0,0-.726.1,1.008,1.008,0,0,0-.25.34,4.945,4.945,0,0,0-.48,1.128c-.081.324-.094.691-.2,1.025-.188.616-.671,1.138-.726,1.78-.026.289.023.626-.188.82a1.186,1.186,0,0,1-.165.12,1.246,1.246,0,0,0-.363.373,1.223,1.223,0,0,1-.256.353c-.188.139-.5.126-.59.324s.146.467.091.7-.259.279-.405.409a1.417,1.417,0,0,0-.35.649,2.163,2.163,0,0,1-1.764-.438,5.616,5.616,0,0,1,.276,2.017.824.824,0,0,1-.162.623,11.234,11.234,0,0,1,2.163.376,1.492,1.492,0,0,0,.944,0,1.575,1.575,0,0,0,.435-.344,2.77,2.77,0,0,0,.892-1.375,8.066,8.066,0,0,0,.016-.931,5.255,5.255,0,0,1,.237-1.132,13.46,13.46,0,0,0,.412-2.328c.042-.486.464-.876.684-1.3a6.351,6.351,0,0,0,.872-2.594C487.571,590.828,487.467,590.455,487.162,590.423Z" transform="translate(-341.742 -451.922)" opacity="0.1"/>
    <path id="Path_184" data-name="Path 184" d="M458.369,619.744a8.549,8.549,0,0,1-2-1.673c-1.216-1.145-2.7-1.946-3.985-3.026a28.07,28.07,0,0,0-2.539-2.134,6.347,6.347,0,0,0-2.721-.95.724.724,0,0,0-.324,0,.747.747,0,0,0-.308.243,9.8,9.8,0,0,0-1.1,1.508c-1.621,2.756-3.927,5.072-5.837,7.633a.488.488,0,0,0-.094.182.451.451,0,0,0,.071.282l.389.759c.217.428.567.924,1.034.84a1.132,1.132,0,0,0,.542-.347l1.745-1.67,1.829-1.748a14.027,14.027,0,0,0,2.86-3.379A25.188,25.188,0,0,0,450.1,618.7c.253.324.46.691.687,1.041.36.558.772,1.083,1.18,1.621l2.1,2.675a4.015,4.015,0,0,0,.973.973,3.714,3.714,0,0,0,1.683.451,22.251,22.251,0,0,0,2.37.084,4.087,4.087,0,0,0,1.767-.324,1.6,1.6,0,0,0,.957-1.424,2.087,2.087,0,0,0-.3-.885A7.226,7.226,0,0,0,458.369,619.744Z" transform="translate(-313.812 -466.483)" fill="#2f2e41"/>
    <ellipse id="Ellipse_41" data-name="Ellipse 41" cx="0.71" cy="0.713" rx="0.71" ry="0.713" transform="translate(145.848 138.987)" fill="#e8e8f0"/>
    <path id="Path_185" data-name="Path 185" d="M501.443,587.888a1.365,1.365,0,0,1,.078,1.025,4.155,4.155,0,0,1-.457.944,4.5,4.5,0,0,1-.594.843,6.108,6.108,0,0,0,3.12-.9,4.529,4.529,0,0,0,1.968-1.715.907.907,0,0,1-.726-.136,2.593,2.593,0,0,1-.555-.516l-.548-.616a2.464,2.464,0,0,1-.324-.444,1.226,1.226,0,0,1-.146-.717,4.176,4.176,0,0,1-.726.6c-.392.256-.824.441-1.219.694-.136.091-.447.234-.366.415S501.333,587.693,501.443,587.888Z" transform="translate(-355.041 -448.723)" fill="#fbbebe"/>
    <path id="Path_186" data-name="Path 186" d="M501.443,587.888a1.365,1.365,0,0,1,.078,1.025,4.155,4.155,0,0,1-.457.944,4.5,4.5,0,0,1-.594.843,6.108,6.108,0,0,0,3.12-.9,4.529,4.529,0,0,0,1.968-1.715.907.907,0,0,1-.726-.136,2.593,2.593,0,0,1-.555-.516l-.548-.616a2.464,2.464,0,0,1-.324-.444,1.226,1.226,0,0,1-.146-.717,4.176,4.176,0,0,1-.726.6c-.392.256-.824.441-1.219.694-.136.091-.447.234-.366.415S501.333,587.693,501.443,587.888Z" transform="translate(-355.041 -448.723)" opacity="0.1"/>
    <path id="Path_187" data-name="Path 187" d="M494.516,592.621a.924.924,0,0,0,0,1.07c.032.039.149.282.2.285a.178.178,0,0,0,.123-.065,8.145,8.145,0,0,0,.694-.827,1.544,1.544,0,0,1,.882-.577,1.907,1.907,0,0,1,1.216.379,1.154,1.154,0,0,1,.418.324,1.132,1.132,0,0,1,.136.464,22.345,22.345,0,0,1,.123,2.948,11.616,11.616,0,0,1-.139,2.124c-.071.36-.175.713-.224,1.08a6.89,6.89,0,0,0-.045.973v1.355a3.569,3.569,0,0,0,.052.743c.065.3.2.571.3.859a5.621,5.621,0,0,1,.2,1.015l.185,1.4a1.771,1.771,0,0,1-.165,1.3c-.12.159-.279.289-.4.447-.457.6-.324,1.45-.5,2.179a2.717,2.717,0,0,1-.888,1.362,1.469,1.469,0,0,1-1.171.418,1.6,1.6,0,0,1-1.067-1.261,5.042,5.042,0,0,0-.548-1.644,4.359,4.359,0,0,0-1.083-.9,1.871,1.871,0,0,1-.846-1.1c-.036-.2,0-.415-.036-.622a1.469,1.469,0,0,0-.9-1.19c-.292-.113-.649-.156-.817-.422a1.969,1.969,0,0,0,.853-1.145,5.878,5.878,0,0,0,.208-1.446l.1-1.621a5.416,5.416,0,0,1,.386-2.1c.143-.292.324-.568.47-.856a9.3,9.3,0,0,0,.5-1.255c.233-.668.467-1.336.674-2.011a3.788,3.788,0,0,1,.37-.937C493.936,593.052,494.189,592.685,494.516,592.621Z" transform="translate(-348.101 -453.348)" fill="#e8e8f0"/>
    <path id="Path_188" data-name="Path 188" d="M492.264,602.593h.431l.091-.649a1.351,1.351,0,0,1,.091-.379,2.271,2.271,0,0,1,.25-.363,4.74,4.74,0,0,0,.5-2.124,10.811,10.811,0,0,1,.947-2.776l.837-1.865a2.572,2.572,0,0,0,.182-.477,2.852,2.852,0,0,0,.052-.551c0-.289.091-1.339.1-1.621,0-.107-.237-.049-.285-.143-.1-.208-.246.353-.444.477a1.089,1.089,0,0,0-.386.564c-.182.467-.292.973-.461,1.437a2.935,2.935,0,0,1-.781,1.271c-.172.149-.37.269-.532.431a2.91,2.91,0,0,0-.587,2.059C492.251,598.332,492.166,602.593,492.264,602.593Z" transform="translate(-349.464 -452.736)" fill="#2f2e41"/>
    <path id="Path_189" data-name="Path 189" d="M503.3,590.378a1.472,1.472,0,0,0-.769,1.054,5.331,5.331,0,0,1-.389,1.3c-.525.914-1.865,1.18-2.238,2.169a3.991,3.991,0,0,0-.149,1.021c-.065.71-.3,1.394-.37,2.1a9.355,9.355,0,0,0,.039,1.651l.47,5.584a7.458,7.458,0,0,1-.139,2.458,2.367,2.367,0,0,0,1.407-.233c.438-.2.84-.477,1.265-.71a13.028,13.028,0,0,0,2.169-1.219,1.327,1.327,0,0,0,.292-.324,2.8,2.8,0,0,0,.195-.733,3.955,3.955,0,0,1,.211-.577,17.015,17.015,0,0,0,.61-1.725,9.91,9.91,0,0,0,.279-1.18c.052-.324.081-.649.107-.973a5.708,5.708,0,0,1,.3-1.475,11.885,11.885,0,0,0,.684-3.541,1.851,1.851,0,0,0-.036-.519,2.775,2.775,0,0,0-.285-.593c-.195-.366-.324-.768-.493-1.141a5.614,5.614,0,0,0-1.917-2.014A1.459,1.459,0,0,0,503.3,590.378Z" transform="translate(-354.297 -451.881)" fill="#2f2e41"/>
    <path id="Path_190" data-name="Path 190" d="M470.71,614.646a3.382,3.382,0,0,1-.892-.678c-.117-.136-.214-.289-.324-.425a2.209,2.209,0,0,0-1.122-.649,5.476,5.476,0,0,0-1.3-.126,2.354,2.354,0,0,0-.866.1.882.882,0,0,0-.574.616,1.022,1.022,0,0,0,.438.908,2.064,2.064,0,0,0,.872.422,7,7,0,0,0,.788.094,11.472,11.472,0,0,1,4.293,1.774q1.79,1.018,3.651,1.894a7.587,7.587,0,0,0,.062-1.119c0-.279-.023-.707-.285-.872a5.727,5.727,0,0,0-1.161-.347,18.265,18.265,0,0,1-2.338-.947A11.625,11.625,0,0,1,470.71,614.646Z" transform="translate(-331.501 -467.037)" fill="#fbbebe"/>
    <ellipse id="Ellipse_42" data-name="Ellipse 42" cx="2.763" cy="2.779" rx="2.763" ry="2.779" transform="translate(143.227 133.289)" fill="#fbbebe"/>
    <path id="Path_191" data-name="Path 191" d="M499.735,599.446a4.429,4.429,0,0,0-.535,1c-.324.7-.876,1.3-1.145,2.04s-.272,1.7-.827,2.3a.807.807,0,0,0-.243.35,1.675,1.675,0,0,1-.026.253c-.081.221-.441.23-.509.457-.019.065,0,.136-.032.2-.055.146-.25.169-.376.256-.269.182-.214.6-.405.866a.73.73,0,0,1-.691.243,2.431,2.431,0,0,1-.717-.269.692.692,0,0,0-.259-.081.535.535,0,0,0-.3.1,1.839,1.839,0,0,0-.746,1.573,5.137,5.137,0,0,0,.428,1.761.706.706,0,0,0,.139.263.619.619,0,0,0,.687.052,3.246,3.246,0,0,1,.671-.3c.428-.078.846.217,1.281.191a1.781,1.781,0,0,0,.863-.379,4.765,4.765,0,0,0,1.161-.973c.188-.25.324-.532.493-.8a10.215,10.215,0,0,1,.7-.931l1.6-1.946a4.486,4.486,0,0,0,.428-.59,4.16,4.16,0,0,0,.324-.892,6.831,6.831,0,0,0,.324-1.586,6.089,6.089,0,0,0-.117-1.329,4.7,4.7,0,0,0-.324-1.268C501.23,599.284,500.387,598.687,499.735,599.446Z" transform="translate(-349.941 -457.8)" fill="#2f2e41"/>
    <path id="Path_192" data-name="Path 192" d="M502.064,570.212a3.113,3.113,0,0,0-1.278-2.529,3.7,3.7,0,0,0-3.142-3.6,3.59,3.59,0,0,0-7.073.191c-1.148-.259-2.2.078-2.39.785s.619,1.621,1.829,1.946a3.406,3.406,0,0,0,1.174.117,3.593,3.593,0,0,0,2.471,1.54,3.687,3.687,0,0,0,2.7,2.782,3.1,3.1,0,0,0,.833,1.151v.269a2.338,2.338,0,0,0,4.676,0,2.5,2.5,0,0,0-.224-1.034A3.126,3.126,0,0,0,502.064,570.212Z" transform="translate(-346.718 -432.191)" fill="#f86d70"/>
    <path id="Path_193" data-name="Path 193" d="M488.953,565.2c.191-.707,1.242-1.044,2.39-.785a3.651,3.651,0,0,1,3.567-3.074h.237a3.514,3.514,0,0,0-1.018-.152,3.651,3.651,0,0,0-3.567,3.074c-1.148-.259-2.2.078-2.39.785s.619,1.621,1.829,1.946a3.573,3.573,0,0,0,.694.12C489.537,566.768,488.762,565.924,488.953,565.2Z" transform="translate(-346.712 -432.188)" opacity="0.1"/>
    <path id="Path_194" data-name="Path 194" d="M504.416,585.589a2.43,2.43,0,0,1,0-.266,3.028,3.028,0,0,1-.833-1.151,3.677,3.677,0,0,1-2.7-2.786,3.583,3.583,0,0,1-2.474-1.537,3.116,3.116,0,0,1-.691-.019,3.6,3.6,0,0,0,2.383,1.417,3.687,3.687,0,0,0,2.7,2.782,3.1,3.1,0,0,0,.833,1.151v.269a2.38,2.38,0,0,0,2.325,2.419A2.419,2.419,0,0,1,504.416,585.589Z" transform="translate(-353.182 -444.783)" opacity="0.1"/>
    <ellipse id="Ellipse_43" data-name="Ellipse 43" cx="0.425" cy="0.567" rx="0.425" ry="0.567" transform="translate(146.233 136.441) rotate(-37.22)" fill="#fbbebe"/>
  </g>
</svg>
