<svg xmlns="http://www.w3.org/2000/svg" xmlns:xlink="http://www.w3.org/1999/xlink" width="118" height="118" viewBox="0 0 118 118">
  <defs>
    <filter id="Rectangle_4" x="0" y="0" width="118" height="118" filterUnits="userSpaceOnUse">
      <feOffset dy="3" input="SourceAlpha"/>
      <feGaussianBlur stdDeviation="3" result="blur"/>
      <feFlood flood-opacity="0.161"/>
      <feComposite operator="in" in2="blur"/>
      <feComposite in="SourceGraphic"/>
    </filter>
  </defs>
  <g id="Group_6" data-name="Group 6" transform="translate(8.806 6)">
    <g transform="matrix(1, 0, 0, 1, -8.81, -6)" filter="url(#Rectangle_4)">
      <rect id="Rectangle_4-2" data-name="Rectangle 4" width="100" height="100" rx="10" transform="translate(9 6)" fill="#d8089d"/>
    </g>
    <g id="noun_anywhere_960877" transform="translate(25 25)">
      <g id="Group_10" data-name="Group 10">
        <path id="Path_6" data-name="Path 6" d="M42.856,42.322a14.92,14.92,0,0,0,.128-20.5.954.954,0,0,0-.917-.907,14.91,14.91,0,0,0-20.189.05.945.945,0,0,0-.607.576,14.937,14.937,0,0,0-.127,20.783.9.9,0,0,0,.762.741,14.907,14.907,0,0,0,20.189,0,.9.9,0,0,0,.761-.74ZM19.051,33H23.03a23.187,23.187,0,0,0,1.064,6.269A14.987,14.987,0,0,0,22.275,40.6,12.927,12.927,0,0,1,19.051,33Zm3.269-9.647a14.82,14.82,0,0,0,1.791,1.33A23.12,23.12,0,0,0,23.029,31H19.05A12.932,12.932,0,0,1,22.32,23.353ZM44.949,31H40.97a23.23,23.23,0,0,0-1.047-6.22,14.868,14.868,0,0,0,1.847-1.328A12.926,12.926,0,0,1,44.949,31ZM33,19.155c1.75.49,3.314,2.223,4.4,4.7a12.992,12.992,0,0,1-4.4,1.1ZM31,26.94V31H25.028a21.277,21.277,0,0,1,.9-5.347A15,15,0,0,0,31,26.94Zm-4.373-3.165c1.09-2.435,2.641-4.135,4.373-4.62v5.786A13.015,13.015,0,0,1,26.627,23.775ZM31,33v4.056a14.97,14.97,0,0,0-5.084,1.252A21.282,21.282,0,0,1,25.029,33Zm0,6.054v5.791c-1.741-.487-3.3-2.2-4.39-4.658A12.975,12.975,0,0,1,31,39.054Zm2,0a12.981,12.981,0,0,1,4.39,1.133C36.3,42.641,34.742,44.358,33,44.845Zm0-2V33h5.972a21.327,21.327,0,0,1-.887,5.307A14.985,14.985,0,0,0,33,37.056ZM33,31V26.95a14.993,14.993,0,0,0,5.1-1.216A21.319,21.319,0,0,1,38.972,31Zm6.188-8.1a14.1,14.1,0,0,0-1.461-2.548,13.034,13.034,0,0,1,2.62,1.7A13.412,13.412,0,0,1,39.188,22.9Zm-14.33-.1a13.2,13.2,0,0,1-1.1-.834,13.076,13.076,0,0,1,2.519-1.611A14.055,14.055,0,0,0,24.858,22.792Zm-.024,18.36a14.04,14.04,0,0,0,1.439,2.5A13.02,13.02,0,0,1,23.7,42,13.2,13.2,0,0,1,24.834,41.152Zm14.332,0A12.844,12.844,0,0,1,40.3,42a13.045,13.045,0,0,1-2.57,1.654A14.057,14.057,0,0,0,39.166,41.152Zm.74-1.883A23.135,23.135,0,0,0,40.97,33h3.979a12.928,12.928,0,0,1-3.225,7.6A14.718,14.718,0,0,0,39.906,39.269Z" transform="translate(-7 -7)" fill="#fff"/>
        <path id="Path_7" data-name="Path 7" d="M30.707,10.707,31,10.414V12a1,1,0,0,0,2,0V10.414l.293.293a1,1,0,0,0,1.414-1.414l-2-2a1,1,0,0,0-1.414,0l-2,2a1,1,0,0,0,1.414,1.414Z" transform="translate(-7 -7)" fill="#fff"/>
        <path id="Path_8" data-name="Path 8" d="M33.293,53.293,33,53.586V52a1,1,0,0,0-2,0v1.586l-.293-.293a1,1,0,1,0-1.414,1.414l2,2a1,1,0,0,0,1.414,0l2-2a1,1,0,0,0-1.414-1.414Z" transform="translate(-7 -7)" fill="#fff"/>
        <path id="Path_9" data-name="Path 9" d="M56.707,31.293l-2-2a1,1,0,0,0-1.414,1.414l.293.293H52a1,1,0,0,0,0,2h1.586l-.293.293a1,1,0,1,0,1.414,1.414l2-2A1,1,0,0,0,56.707,31.293Z" transform="translate(-7 -7)" fill="#fff"/>
        <path id="Path_10" data-name="Path 10" d="M12,31H10.414l.293-.293a1,1,0,0,0-1.414-1.414l-2,2a1,1,0,0,0,0,1.414l2,2a1,1,0,0,0,1.414-1.414L10.414,33H12a1,1,0,0,0,0-2Z" transform="translate(-7 -7)" fill="#fff"/>
        <path id="Path_11" data-name="Path 11" d="M48.971,14.029H46.143a1,1,0,1,0,0,2h.414l-1.121,1.122a1,1,0,1,0,1.414,1.414l1.121-1.121v.414a1,1,0,1,0,2,0V15.029A1,1,0,0,0,48.971,14.029Z" transform="translate(-7 -7)" fill="#fff"/>
        <path id="Path_12" data-name="Path 12" d="M18.565,45.436a1,1,0,0,0-1.414,0l-1.122,1.121v-.414a1,1,0,1,0-2,0v2.828a1,1,0,0,0,1,1h2.829a1,1,0,0,0,0-2h-.414l1.121-1.121A1,1,0,0,0,18.565,45.436Z" transform="translate(-7 -7)" fill="#fff"/>
        <path id="Path_13" data-name="Path 13" d="M48.971,45.143a1,1,0,0,0-1,1v.414L46.85,45.436a1,1,0,0,0-1.414,1.414l1.121,1.121h-.414a1,1,0,0,0,0,2h2.828a1,1,0,0,0,1-1V46.143A1,1,0,0,0,48.971,45.143Z" transform="translate(-7 -7)" fill="#fff"/>
        <path id="Path_14" data-name="Path 14" d="M15.029,18.858a1,1,0,0,0,1-1v-.415l1.122,1.122a1,1,0,0,0,1.414-1.414l-1.122-1.122h.415a1,1,0,0,0,0-2H15.029a1,1,0,0,0-1,1v2.829A1,1,0,0,0,15.029,18.858Z" transform="translate(-7 -7)" fill="#fff"/>
      </g>
    </g>
  </g>
</svg>
