<svg xmlns="http://www.w3.org/2000/svg" width="411.891" height="240.891" viewBox="0 0 411.891 240.891">
  <g id="undraw_my_files_swob_1_" data-name="undraw_my_files_swob (1)" transform="translate(-46.867)">
    <path id="Path_41" data-name="Path 41" d="M825.583,442.4c-2.4,15.274-9.848,30.1-22.135,39.482-12.092,9.24-27.584,12.523-42.54,15.345q-26.905,5.084-53.959,9.293-3.835.611-7.676,1.181H594.225c-.106-.142-.219-.289-.325-.437-.171-.248-.343-.5-.508-.744-.094-.142-.189-.289-.283-.437H659a7.062,7.062,0,0,0,7.056-7.05V411.081c.425-1.334.82-2.675,1.181-4.033a106.309,106.309,0,0,0,3.265-19.313c.354-4.546.461-9.092.384-13.645-.218-12.511-1.854-25.022-3.631-37.445-.13-.915-.266-1.836-.4-2.751-1.252-8.632-2.391-18.026,1.96-25.589,4.977-8.656,16.024-12.263,25.973-11.377,17.9,1.6,32.969,15.3,40.8,31.475s9.583,34.551,10.3,52.5a165.076,165.076,0,0,1-.992,29.007q6.73-15.392,13.473-30.785c2.4-5.473,4.918-11.124,9.358-15.127,9.281-8.378,24.632-6.689,34.546.939s15.339,19.7,18.953,31.664C825.706,411.406,827.991,427.123,825.583,442.4Z" transform="translate(-367.799 -266.806)" fill="#f2f2f2"/>
    <path id="Path_42" data-name="Path 42" d="M853.925,401.98a76.1,76.1,0,0,1,9.4,37.828,91.566,91.566,0,0,1-8.461,37.745,94.824,94.824,0,0,1-20.35,28.517,86.4,86.4,0,0,1-29.245,18.681,76.423,76.423,0,0,1-39.683,3.771q-2.777-.477-5.514-1.157c-1.107-.273-1.579,1.435-.471,1.708a78.4,78.4,0,0,0,42.063-1.21,86.659,86.659,0,0,0,30.81-17.527,96.184,96.184,0,0,0,22.1-28.17,94.168,94.168,0,0,0,10.377-37.706,80.149,80.149,0,0,0-7.238-39.049q-1.049-2.2-2.252-4.324a.886.886,0,0,0-1.529.894Z" transform="translate(-435.73 -309.351)" fill="#fff"/>
    <path id="Path_43" data-name="Path 43" d="M740.254,295.7a192.09,192.09,0,0,1,16.708,41.91,202.415,202.415,0,0,1,3.443,89.484,191.361,191.361,0,0,1-13.455,43.092c-6.152,13.667-15.008,28.066-30.136,32.851a31.551,31.551,0,0,1-5.231,1.169c-1.124.154-.646,1.861.471,1.708,15.649-2.148,26.523-15.149,33.342-28.4a181.827,181.827,0,0,0,15.422-43.638,204.005,204.005,0,0,0-.7-91A195.08,195.08,0,0,0,744.458,299.9q-1.3-2.566-2.674-5.092C741.238,293.8,739.709,294.7,740.254,295.7Z" transform="translate(-416.06 -265.81)" fill="#fff"/>
    <path id="Path_44" data-name="Path 44" d="M555.948,292.259H449.908a8.129,8.129,0,0,0-8.118,8.118V353.51h16.319a7.014,7.014,0,0,1,5.969,3.3l5.656,9,5.408,8.6,1.015,1.618,6.188,9.842.071.112h81.649V300.378A8.129,8.129,0,0,0,555.948,292.259Z" transform="translate(-305.821 -264.947)" fill="#ccc"/>
    <path id="Path_45" data-name="Path 45" d="M523.858,319.769H471.316a5.252,5.252,0,0,0,0,10.5h52.542a5.252,5.252,0,1,0,0-10.5Z" transform="translate(-315.764 -276.215)" fill="#fff"/>
    <path id="Path_46" data-name="Path 46" d="M552.993,363.449h-81.2a5.733,5.733,0,1,0,0,11.466h81.2a5.733,5.733,0,1,0,0-11.466Z" transform="translate(-315.762 -294.105)" fill="#fff"/>
    <path id="Path_47" data-name="Path 47" d="M561.9,400.73a5.73,5.73,0,0,0-5.184-3.3h-81.2c-.124,0-.242.006-.366.012a7.034,7.034,0,0,1,2.592,2.444l5.656,9h73.318a5.726,5.726,0,0,0,5.184-8.16Z" transform="translate(-319.485 -308.023)" fill="#fff"/>
    <path id="Path_48" data-name="Path 48" d="M571.864,436.369a5.733,5.733,0,0,0-5.674-4.96H498.28l1.015,1.618,6.188,9.842H566.19a5.667,5.667,0,0,0,3.324-1.069,5.725,5.725,0,0,0,2.4-4.664,5.455,5.455,0,0,0-.053-.768Z" transform="translate(-328.958 -321.94)" fill="#fff"/>
    <path id="Path_49" data-name="Path 49" d="M637.385,342.63l-8.266-3.23-41.211-16.083L538.6,304.076a8.133,8.133,0,0,0-10.515,4.617l-1.724,4.422-4.1,10.5L516.3,338.9l-4.475,11.466-3.354,8.6-4.475,11.46-3.359,8.6-.094.248-.537,1.37,6.188,9.842.071.112H620.865a7.035,7.035,0,0,1,5.485,2.621l.484-1.228,5.916-15.15L642,353.152A8.134,8.134,0,0,0,637.385,342.63Z" transform="translate(-329.663 -269.56)" fill="#d8089d"/>
    <path id="Path_50" data-name="Path 50" d="M617.446,356l-4.416-1.724L568.5,336.9a5.254,5.254,0,1,0-3.82,9.789l14.708,5.739,18.191,7.1,15.451,6.034.6.23a5.254,5.254,0,1,0,3.82-9.789Z" transform="translate(-354.784 -283.086)" fill="#fff"/>
    <path id="Path_51" data-name="Path 51" d="M628.557,407.387l-22.176-8.656-15.829-6.176-8.455-3.3-22.023-8.6-7.156-2.793a5.733,5.733,0,0,0-7.221,2.793c-.071.148-.142.3-.2.461a5.729,5.729,0,0,0,3.253,7.422l1.83.714,29.356,11.46,26.445,10.321,18.008,7.032a5.733,5.733,0,1,0,4.168-10.681Z" transform="translate(-348.136 -299.849)" fill="#fff"/>
    <path id="Path_52" data-name="Path 52" d="M601.319,433.228l-1.423-.555-13.916-5.432-12.712-4.96-22.046-8.6-10.663-4.162A5.732,5.732,0,1,0,536.4,420.2l5.337,2.084,26.628,10.391,2.74,1.069.283.112h31.535Z" transform="translate(-343.074 -312.813)" fill="#fff"/>
    <path id="Path_53" data-name="Path 53" d="M542.4,446.7l-2.74-1.069-11.448-4.47a5.724,5.724,0,0,0-7.746,4.47,5.428,5.428,0,0,0-.065,1.069.657.657,0,0,0,.006.112h22.282Z" transform="translate(-338.015 -325.775)" fill="#fff"/>
    <path id="Path_54" data-name="Path 54" d="M520.517,427.547l-2.74-1.069H474.936a5.432,5.432,0,0,0-.065,1.069h-5.857l.071.112H520.8Zm0,0h-51.5l.071.112H520.8Zm0,0h-51.5l.071.112H520.8Zm.283.112-.283-.112h-51.5l.071.112ZM417.47,545.891a7.06,7.06,0,0,1-7.05-7.05V402.236a7.062,7.062,0,0,1,7.05-7.056h10.988V394H417.47a8.246,8.246,0,0,0-8.23,8.236V538.842a8.237,8.237,0,0,0,4.824,7.487h104.02c-.094-.142-.189-.289-.283-.437ZM589.661,429.053a8.194,8.194,0,0,0-5.969-2.574H469.74l-6.376-10.143-.154-.248-5.408-8.6-6.058-9.636a8.252,8.252,0,0,0-6.967-3.85H417.47a8.246,8.246,0,0,0-8.23,8.236V538.842a8.237,8.237,0,0,0,4.824,7.487,8.119,8.119,0,0,0,3.407.744H583.692a8.147,8.147,0,0,0,3.413-.744,8.237,8.237,0,0,0,4.824-7.487V434.715a8.189,8.189,0,0,0-2.267-5.662Zm1.087,109.789a7.062,7.062,0,0,1-7.056,7.05H417.47a7.06,7.06,0,0,1-7.05-7.05V402.236a7.062,7.062,0,0,1,7.05-7.056h27.307a7.014,7.014,0,0,1,5.969,3.3l5.656,9,5.408,8.6,1.015,1.618,6.188,9.842.071.112H583.692a7.062,7.062,0,0,1,7.056,7.056ZM520.517,427.547h-51.5l.071.112H520.8Zm0,0h-51.5l.071.112H520.8Zm0,0h-51.5l.071.112H520.8Zm0,0-2.74-1.069H469.74l-6.376-10.143-.537,1.37,6.188,9.842.071.112H520.8Z" transform="translate(-292.49 -306.618)" fill="#3f3d56"/>
    <path id="Path_55" data-name="Path 55" d="M134.547,278.721l-3.382,7.071-28.882-9.679,4.991-10.436Z" transform="translate(-41.893 -108.815)" fill="#ffb8b8"/>
    <path id="Path_56" data-name="Path 56" d="M8.79,0H24.633V9.517H0V8.79A8.79,8.79,0,0,1,8.79,0Z" transform="matrix(0.431, -0.902, 0.902, 0.431, 80.729, 189.647)" fill="#2f2e41"/>
    <path id="Path_57" data-name="Path 57" d="M162.8,373.379l-7.833-.265-.33-30.492,9.183.542Z" transform="translate(-63.334 -140.331)" fill="#ffb8b8"/>
    <path id="Path_58" data-name="Path 58" d="M8.79,0H24.633V9.517H0V8.79A8.79,8.79,0,0,1,8.789,0Z" transform="translate(76.598 230.035) rotate(1.933)" fill="#2f2e41"/>
    <path id="Path_59" data-name="Path 59" d="M356.088,423.183s-23.974-6.073-34.842,2.877l-6.073,17.581-24.294,34.523,35.162,21.1,6.393-15.983-15.343-7.672,18.54-15.983-3.2,84.389,12.147,1.918S371.431,441.723,356.088,423.183Z" transform="translate(-244.011 -317.746)" fill="#2f2e41"/>
    <path id="Path_60" data-name="Path 60" d="M339.721,395.233l.292-.519c3.08-5.476,2.581-14.393,1.62-20.909-.8-5.458-.781-15.076-.619-22.184a10.563,10.563,0,0,1,8.42-10.168,119.822,119.822,0,0,1,20.935-1.9l0,.32,0-.32a4.868,4.868,0,0,1,4.886,4.749c.143,7.654.1,21.612-1.8,29.1-2.819,11.115,1.589,18.668,1.634,18.743l.266.445Z" transform="translate(-264.016 -284.319)" fill="#d8089d"/>
    <path id="Path_61" data-name="Path 61" d="M312.9,439.2a5.919,5.919,0,0,0,2.25-8.793l13.53-58.344H318.449l-11.941,57.195a5.951,5.951,0,0,0,6.39,9.943Z" transform="translate(-249.526 -297.633)" fill="#ffb8b8"/>
    <path id="Path_62" data-name="Path 62" d="M430.227,373.686l-22.579-21.359-6.1,8.543L416.8,374.3l-20.008,15.888c-.145-.01-.288-.022-.436-.022a6.408,6.408,0,1,0,6.344,7.26l.063.063Z" transform="translate(-284.587 -289.55)" fill="#ffb8b8"/>
    <path id="Path_63" data-name="Path 63" d="M341.742,343.9s-14.1-2.313-15.379,8.556-1.918,10.868-1.918,10.868,10.229-1.918,12.786.639S341.742,343.9,341.742,343.9Z" transform="translate(-257.76 -286.012)" fill="#d8089d"/>
    <path id="Path_64" data-name="Path 64" d="M389.413,340.96s11.508-1.918,16.622,3.2,7.672,6.393,7.672,6.393-11.508,6.393-7.032,12.147c0,0-12.147-5.754-14.065-3.836S389.413,340.96,389.413,340.96Z" transform="translate(-284.369 -284.75)" fill="#d8089d"/>
    <path id="Path_65" data-name="Path 65" d="M369.834,265.094c-3.63-2.9-4.584-8.494-2.478-12.635a12.511,12.511,0,0,1,11.509-6.449,15.5,15.5,0,0,1,11.7,6.639c3.777,5.321,4.57,12.717,9.593,16.883,4.537,3.763,11.036,3.655,16.922,3.355a14.644,14.644,0,0,0,5.813-1.1c1.78-.882,3.235-2.741,3.006-4.714,1.479,2.341.621,5.623-1.363,7.555s-4.809,2.741-7.559,3.063a28.086,28.086,0,0,1-25.478-11.178c-2.048-2.825-3.629-6.116-6.439-8.184s-7.5-2.213-9.222.821c-.853,1.5-.77,3.382-1.554,4.919s-3.333,2.366-4.089.814" transform="translate(-274.883 -246.001)" fill="#2f2e41"/>
    <circle id="Ellipse_10" data-name="Ellipse 10" cx="17.713" cy="17.713" r="17.713" transform="translate(76.683 14.498)" fill="#2f2e41"/>
    <circle id="Ellipse_11" data-name="Ellipse 11" cx="14.501" cy="14.501" r="14.501" transform="translate(79.788 22.307)" fill="#ffb8b8"/>
    <path id="Path_66" data-name="Path 66" d="M348.8,284.718c1.971.431,1.326,3.737,2.883,5.02,1.4,1.157,3.428-.033,5.2-.464,2.232-.544,4.569.253,6.63,1.268s4.048,2.276,6.3,2.749,4.914-.06,6.174-1.981c1.205-1.837.761-4.314-.181-6.3a14.625,14.625,0,0,0-26.24-.364" transform="translate(-267.736 -258.56)" fill="#2f2e41"/>
  </g>
</svg>
