<svg xmlns="http://www.w3.org/2000/svg" width="362.889" height="727.778" viewBox="0 0 362.889 727.778">
  <g id="undraw_online_posts_h475" transform="translate(-65.111)">
    <path id="Path_195" data-name="Path 195" d="M629.252,252.139h-4V142.593a63.4,63.4,0,0,0-63.4-63.4H329.765a63.4,63.4,0,0,0-63.4,63.4V743.568a63.4,63.4,0,0,0,63.4,63.4H561.851a63.4,63.4,0,0,0,63.4-63.4V330.115h4Z" transform="translate(-201.252 -79.191)" fill="#3f3d56"/>
    <path id="Path_196" data-name="Path 196" d="M564.409,95.686H534.115a22.495,22.495,0,0,1-20.827,30.991H380.328A22.495,22.495,0,0,1,359.5,95.686h-28.3a47.348,47.348,0,0,0-47.348,47.348V743.127a47.348,47.348,0,0,0,47.348,47.348h233.2a47.348,47.348,0,0,0,47.348-47.348V143.034A47.348,47.348,0,0,0,564.41,95.686Z" transform="translate(-201.252 -79.191)" fill="#fff"/>
    <rect id="Rectangle_38" data-name="Rectangle 38" width="82.66" height="7.676" transform="translate(196.318 177.704)" fill="#d8089d"/>
    <rect id="Rectangle_39" data-name="Rectangle 39" width="144.069" height="7.676" transform="translate(196.318 204.259)" fill="#e6e6e6"/>
    <rect id="Rectangle_40" data-name="Rectangle 40" width="143.928" height="7.676" transform="translate(196.318 230.813)" fill="#e6e6e6"/>
    <rect id="Rectangle_41" data-name="Rectangle 41" width="61.409" height="61.409" transform="translate(117.778 177.818)" fill="#d8089d"/>
    <rect id="Rectangle_42" data-name="Rectangle 42" width="82.66" height="7.676" transform="translate(196.318 338.904)" fill="#d8089d"/>
    <rect id="Rectangle_43" data-name="Rectangle 43" width="144.069" height="7.676" transform="translate(196.318 365.458)" fill="#e6e6e6"/>
    <rect id="Rectangle_44" data-name="Rectangle 44" width="143.928" height="7.676" transform="translate(196.318 392.012)" fill="#e6e6e6"/>
    <rect id="Rectangle_45" data-name="Rectangle 45" width="61.409" height="61.409" transform="translate(117.778 339.018)" fill="#d8089d"/>
    <rect id="Rectangle_46" data-name="Rectangle 46" width="82.66" height="7.676" transform="translate(196.318 500.103)" fill="#d8089d"/>
    <rect id="Rectangle_47" data-name="Rectangle 47" width="144.069" height="7.676" transform="translate(196.318 526.657)" fill="#e6e6e6"/>
    <rect id="Rectangle_48" data-name="Rectangle 48" width="143.928" height="7.676" transform="translate(196.318 553.212)" fill="#e6e6e6"/>
    <rect id="Rectangle_49" data-name="Rectangle 49" width="61.409" height="61.409" transform="translate(117.778 500.217)" fill="#d8089d"/>
  </g>
</svg>
