<svg xmlns="http://www.w3.org/2000/svg" xmlns:xlink="http://www.w3.org/1999/xlink" width="118" height="118" viewBox="0 0 118 118">
  <defs>
    <filter id="Rectangle_4" x="0" y="0" width="118" height="118" filterUnits="userSpaceOnUse">
      <feOffset dy="3" input="SourceAlpha"/>
      <feGaussianBlur stdDeviation="3" result="blur"/>
      <feFlood flood-opacity="0.161"/>
      <feComposite operator="in" in2="blur"/>
      <feComposite in="SourceGraphic"/>
    </filter>
  </defs>
  <g id="Group_6" data-name="Group 6" transform="translate(8.943 6)">
    <g transform="matrix(1, 0, 0, 1, -8.94, -6)" filter="url(#Rectangle_4)">
      <rect id="Rectangle_4-2" data-name="Rectangle 4" width="100" height="100" rx="10" transform="translate(9 6)" fill="#d8089d"/>
    </g>
    <g id="noun_Money_3134074" transform="translate(27.627 25.769)">
      <path id="Path_4" data-name="Path 4" d="M37.845,28.08H19.2S6.15,39.264,6.15,52.315c0,7.454,5.612,11.184,9.322,11.184h26.1c3.725,0,9.322-3.73,9.322-11.184C50.9,39.264,37.845,28.08,37.845,28.08ZM30.385,53.989v2.985H26.661V54c-2.745-.51-4.47-2.2-4.592-4.663H25.3c.158,1.291,1.459,2.123,3.342,2.123,1.735,0,2.964-.842,2.964-2.041,0-1.02-.8-1.6-2.755-2.041l-2.077-.444c-2.908-.607-4.337-2.123-4.337-4.556s1.622-4.189,4.2-4.765V34.606h3.725v3.01c2.52.561,4.2,2.281,4.281,4.592H31.528c-.158-1.26-1.332-2.1-2.944-2.1s-2.776.776-2.776,1.99c0,.985.76,1.531,2.633,1.949l1.924.408c3.209.673,4.592,2.041,4.592,4.536C34.957,51.657,33.243,53.443,30.385,53.989Z" transform="translate(-6.15 -15.037)" fill="#fff"/>
      <path id="Path_5" data-name="Path 5" d="M48.589,4.37H43.435a5.612,5.612,0,0,0-8.337,0H29.945a1.867,1.867,0,0,0-1.73,2.551l1.73,4.9H48.589l1.73-4.9a1.867,1.867,0,0,0-1.73-2.551Z" transform="translate(-16.894 -2.516)" fill="#fff"/>
    </g>
  </g>
</svg>
