<svg xmlns="http://www.w3.org/2000/svg" xmlns:xlink="http://www.w3.org/1999/xlink" width="118" height="118" viewBox="0 0 118 118">
  <defs>
    <filter id="Rectangle_4" x="0" y="0" width="118" height="118" filterUnits="userSpaceOnUse">
      <feOffset dy="3" input="SourceAlpha"/>
      <feGaussianBlur stdDeviation="3" result="blur"/>
      <feFlood flood-opacity="0.161"/>
      <feComposite operator="in" in2="blur"/>
      <feComposite in="SourceGraphic"/>
    </filter>
  </defs>
  <g id="Group_6" data-name="Group 6" transform="translate(8.559 6)">
    <g transform="matrix(1, 0, 0, 1, -8.56, -6)" filter="url(#Rectangle_4)">
      <rect id="Rectangle_4-2" data-name="Rectangle 4" width="100" height="100" rx="10" transform="translate(9 6)" fill="#d8089d"/>
    </g>
    <path id="noun_Gauge_994666" d="M34.915,11.4A34.953,34.953,0,0,0,0,46.31,3.087,3.087,0,0,0,3.087,49.4H26.651a3.087,3.087,0,0,0,3.078-3.3c-.011-.161-.024-.29-.024-.423a5.419,5.419,0,0,1,5.208-5.595,5.418,5.418,0,0,1,5.208,5.595c0,.127-.013.247-.022.371a3.157,3.157,0,0,0,.817,2.348,3.111,3.111,0,0,0,2.257,1.01H66.744a3.087,3.087,0,0,0,3.087-3.087A34.953,34.953,0,0,0,34.915,11.4ZM50.545,23.957,40.154,36.137A1.544,1.544,0,1,1,37.8,34.131L48.2,21.953a1.543,1.543,0,1,1,2.348,2Z" transform="translate(15 19.604)" fill="#fff"/>
  </g>
</svg>
