<svg id="undraw_file_sync_ot38_1_" data-name="undraw_file_sync_ot38 (1)" xmlns="http://www.w3.org/2000/svg" width="445.384" height="303.787" viewBox="0 0 445.384 303.787">
  <path id="Path_15" data-name="Path 15" d="M421.582,69.1h-.516v-.9h.387a.258.258,0,0,0,.258-.258V63.292a.258.258,0,0,0-.258-.258h-.387V60.4a5.619,5.619,0,0,0-5.619-5.619h-.573v-.645a.258.258,0,0,0-.258-.258h-4.644a.258.258,0,0,0-.258.258v.645H325.8a5.619,5.619,0,0,0-5.619,5.619V179.97a5.619,5.619,0,0,0,5.619,5.619h89.644a5.619,5.619,0,0,0,5.619-5.619V74.258h.516A.258.258,0,0,0,421.84,74V69.355A.258.258,0,0,0,421.582,69.1Z" transform="translate(-204.787 -53.875)" fill="#3f3d56"/>
  <rect id="Rectangle_5" data-name="Rectangle 5" width="92.369" height="122.558" transform="translate(120.04 4.578)" fill="#f2f2f2"/>
  <rect id="Rectangle_6" data-name="Rectangle 6" width="445.384" height="0.767" transform="translate(0 256.143)" fill="#3f3d56"/>
  <path id="Path_16" data-name="Path 16" d="M164.736,516.384c.86,29.446-16.345,40.238-37.938,40.868q-.752.022-1.5.027-1.5.011-2.975-.05c-19.528-.811-34.986-11.177-35.785-38.562-.828-28.34,34.349-65.163,36.988-67.886,0,0,0,0,0,0l.152-.156S163.876,486.94,164.736,516.384Z" transform="translate(-60.725 -298.491)" fill="#d8089d"/>
  <path id="Path_17" data-name="Path 17" d="M159.863,552.8l13.716-20.4-13.688,22.592.029,2.3q-1.5.011-2.975-.05l.68-29.5-.019-.228.025-.044.065-2.788-15.021-21.808,15,19.722.053.589.514-22.291-12.974-22.61,13.011,18.695-.136-46.181v-.154l0,.151.861,36.4L170.838,472.4l-11.785,17.92.258,19.939L170.191,490.8,159.35,513.189l.144,11.087,15.823-27.107-15.775,30.975Z" transform="translate(-95.344 -298.498)" fill="#3f3d56"/>
  <path id="Path_18" data-name="Path 18" d="M802.892,120.485h-.571V104.838a9.056,9.056,0,0,0-9.056-9.056H760.113a9.056,9.056,0,0,0-9.056,9.056v85.844a9.056,9.056,0,0,0,9.056,9.056h33.151a9.056,9.056,0,0,0,9.056-9.056V131.623h.571Z" transform="translate(-470.442 -79.712)" fill="#3f3d56"/>
  <path id="Path_19" data-name="Path 19" d="M804.411,109.915v85.719a6.764,6.764,0,0,1-6.763,6.765h-33.31a6.763,6.763,0,0,1-6.762-6.763v-85.72a6.763,6.763,0,0,1,6.761-6.762h4.042a3.213,3.213,0,0,0,2.975,4.426h18.992a3.213,3.213,0,0,0,2.975-4.426h4.327a6.763,6.763,0,0,1,6.762,6.761Z" transform="translate(-474.462 -84.257)" fill="#f2f2f2"/>
  <rect id="Rectangle_7" data-name="Rectangle 7" width="28.144" height="1.046" transform="translate(296.922 30.292)" fill="#ccc"/>
  <rect id="Rectangle_8" data-name="Rectangle 8" width="28.144" height="1.046" transform="translate(296.922 33.604)" fill="#ccc"/>
  <rect id="Rectangle_9" data-name="Rectangle 9" width="28.144" height="1.046" transform="translate(296.922 36.916)" fill="#ccc"/>
  <rect id="Rectangle_10" data-name="Rectangle 10" width="6.376" height="6.376" transform="translate(287.998 30.939)" fill="#ccc"/>
  <rect id="Rectangle_11" data-name="Rectangle 11" width="28.144" height="1.046" transform="translate(296.922 104.681)" fill="#ccc"/>
  <rect id="Rectangle_12" data-name="Rectangle 12" width="28.144" height="1.046" transform="translate(296.922 107.993)" fill="#ccc"/>
  <rect id="Rectangle_13" data-name="Rectangle 13" width="28.144" height="1.046" transform="translate(296.922 111.305)" fill="#ccc"/>
  <rect id="Rectangle_14" data-name="Rectangle 14" width="6.376" height="6.376" transform="translate(287.998 105.328)" fill="#ccc"/>
  <path id="Path_20" data-name="Path 20" d="M534.185,431.79H454.151v-1.65H417.86v1.65H337.5a5.414,5.414,0,0,0-5.414,5.414V546.8a5.414,5.414,0,0,0,5.414,5.414H534.185A5.414,5.414,0,0,0,539.6,546.8V437.2A5.414,5.414,0,0,0,534.185,431.79Z" transform="translate(-212.123 -285.862)" fill="#3f3d56"/>
  <rect id="Rectangle_15" data-name="Rectangle 15" width="192.999" height="108.871" transform="translate(127.218 155.496)" fill="#f2f2f2"/>
  <circle id="Ellipse_1" data-name="Ellipse 1" cx="1.979" cy="1.979" r="1.979" transform="translate(221.573 148.567)" fill="#d8089d"/>
  <path id="Path_21" data-name="Path 21" d="M531.755,735.544H512.92v-1.357a.269.269,0,0,0-.269-.269h-6.458a.269.269,0,0,0-.269.269v1.357h-4.036v-1.357a.269.269,0,0,0-.269-.269h-6.458a.269.269,0,0,0-.269.269v1.357h-4.036v-1.357a.269.269,0,0,0-.269-.269h-6.458a.269.269,0,0,0-.269.269v1.357h-4.036v-1.357a.269.269,0,0,0-.269-.269H473.1a.269.269,0,0,0-.269.269v1.357h-4.036v-1.357a.269.269,0,0,0-.269-.269h-6.458a.269.269,0,0,0-.269.269v1.357h-4.036v-1.357a.269.269,0,0,0-.269-.269h-6.458a.269.269,0,0,0-.269.269v1.357h-4.036v-1.357a.269.269,0,0,0-.269-.269H395.871a.269.269,0,0,0-.269.269v1.357h-4.036v-1.357a.269.269,0,0,0-.269-.269h-6.458a.269.269,0,0,0-.269.269v1.357h-4.036v-1.357a.269.269,0,0,0-.269-.269h-6.458a.269.269,0,0,0-.269.269v1.357H369.5v-1.357a.269.269,0,0,0-.269-.269h-6.458a.269.269,0,0,0-.269.269v1.357h-4.036v-1.357a.269.269,0,0,0-.269-.269h-6.458a.269.269,0,0,0-.269.269v1.357h-4.036v-1.357a.269.269,0,0,0-.269-.269H340.71a.269.269,0,0,0-.269.269v1.357H336.4v-1.357a.269.269,0,0,0-.269-.269h-6.458a.269.269,0,0,0-.269.269v1.357H317.031A6.458,6.458,0,0,0,310.573,742v2.92a6.458,6.458,0,0,0,6.458,6.458H531.755a6.458,6.458,0,0,0,6.458-6.458V742A6.458,6.458,0,0,0,531.755,735.544Z" transform="translate(-198.862 -473.157)" fill="#3f3d56"/>
  <rect id="Rectangle_16" data-name="Rectangle 16" width="54.158" height="2.012" transform="translate(205.064 164.022)" fill="#e6e6e6"/>
  <rect id="Rectangle_17" data-name="Rectangle 17" width="54.158" height="2.012" transform="translate(205.064 170.395)" fill="#e6e6e6"/>
  <rect id="Rectangle_18" data-name="Rectangle 18" width="54.158" height="2.012" transform="translate(205.064 176.768)" fill="#e6e6e6"/>
  <rect id="Rectangle_19" data-name="Rectangle 19" width="54.158" height="2.012" transform="translate(205.064 164.022)" fill="#ccc"/>
  <rect id="Rectangle_20" data-name="Rectangle 20" width="54.158" height="2.012" transform="translate(205.064 170.395)" fill="#ccc"/>
  <rect id="Rectangle_21" data-name="Rectangle 21" width="54.158" height="2.012" transform="translate(205.064 176.768)" fill="#ccc"/>
  <rect id="Rectangle_22" data-name="Rectangle 22" width="12.597" height="11.757" transform="translate(187.973 165.437)" fill="#ccc"/>
  <rect id="Rectangle_23" data-name="Rectangle 23" width="54.158" height="2.012" transform="translate(205.064 235.727)" fill="#ccc"/>
  <rect id="Rectangle_24" data-name="Rectangle 24" width="54.158" height="2.012" transform="translate(205.064 242.1)" fill="#ccc"/>
  <rect id="Rectangle_25" data-name="Rectangle 25" width="54.158" height="2.012" transform="translate(205.064 248.473)" fill="#ccc"/>
  <rect id="Rectangle_26" data-name="Rectangle 26" width="12.597" height="12.597" transform="translate(187.973 236.818)" fill="#ccc"/>
  <path id="Path_22" data-name="Path 22" d="M919.3,349.565a20.4,20.4,0,0,0-12.119-6.4l1.993-1.8-2.205-.111-2.728,2.466,2.466,2.728,2.205.111-1.652-1.827a18.927,18.927,0,0,1-3.019,37.611v1.534A20.462,20.462,0,0,0,919.3,349.565Z" transform="translate(-564.887 -231.061)" fill="#3f3d56"/>
  <path id="Path_23" data-name="Path 23" d="M244.278,349.565a20.4,20.4,0,0,1,12.119-6.4l-1.993-1.8,2.205-.111,2.728,2.466-2.466,2.728-2.205.111,1.652-1.827a18.927,18.927,0,0,0,3.019,37.611v1.534a20.462,20.462,0,0,1-15.059-34.316Z" transform="translate(-154.656 -231.061)" fill="#3f3d56"/>
  <rect id="Rectangle_27" data-name="Rectangle 27" width="54.158" height="2.012" transform="translate(147.733 10.643)" fill="#ccc"/>
  <rect id="Rectangle_28" data-name="Rectangle 28" width="54.158" height="2.012" transform="translate(147.733 17.016)" fill="#ccc"/>
  <rect id="Rectangle_29" data-name="Rectangle 29" width="54.158" height="2.012" transform="translate(147.733 23.389)" fill="#ccc"/>
  <rect id="Rectangle_30" data-name="Rectangle 30" width="12.27" height="12.27" transform="translate(130.559 11.887)" fill="#ccc"/>
  <rect id="Rectangle_31" data-name="Rectangle 31" width="54.158" height="2.012" transform="translate(147.546 106.122)" fill="#ccc"/>
  <rect id="Rectangle_32" data-name="Rectangle 32" width="54.158" height="2.012" transform="translate(147.546 112.494)" fill="#ccc"/>
  <rect id="Rectangle_33" data-name="Rectangle 33" width="54.158" height="2.012" transform="translate(147.546 118.867)" fill="#ccc"/>
  <rect id="Rectangle_34" data-name="Rectangle 34" width="12.597" height="11.757" transform="translate(130.028 107.492)" fill="#ccc"/>
  <path id="Path_24" data-name="Path 24" d="M968.256,336.469l12.23-17.756s10.649-8.539,7.6-10.2-11.043,6.132-11.043,6.132-23.055,17.674-19.253,20.141S968.256,336.469,968.256,336.469Z" transform="translate(-597.641 -210.728)" fill="#ffb8b8"/>
  <path id="Path_25" data-name="Path 25" d="M990.406,290.623h15.838a55.4,55.4,0,0,0,0-18.884H990.406A33.978,33.978,0,0,1,990.406,290.623Z" transform="translate(-618.014 -188.2)" fill="#d8089d"/>
  <path id="Path_26" data-name="Path 26" d="M1038.739,309.754c-4.759-8.042-14.176-8.417-14.176-8.417s-9.176-1.173-15.062,11.075c-5.486,11.416-13.058,22.439-1.219,25.111l2.138-6.656,1.324,7.151a46.313,46.313,0,0,0,5.065.087c12.679-.409,24.753.12,24.364-4.43C1040.659,327.627,1043.318,317.492,1038.739,309.754Z" transform="translate(-625.17 -206.429)" fill="#2f2e41"/>
  <path id="Path_27" data-name="Path 27" d="M1021.993,452.616l-6.1,14.023,21.339,3.353s10.06-13.718,10.975-14.633Z" transform="translate(-633.729 -299.719)" fill="#ffb8b8"/>
  <circle id="Ellipse_2" data-name="Ellipse 2" cx="11.279" cy="11.279" r="11.279" transform="translate(387.044 99.854)" fill="#ffb8b8"/>
  <path id="Path_28" data-name="Path 28" d="M1050.876,360.263s5.182,11.584,4.573,12.8,10.974-6.4,10.974-6.4-4.877-8.231-4.573-9.45Z" transform="translate(-655.297 -240.9)" fill="#ffb8b8"/>
  <path id="Path_29" data-name="Path 29" d="M1090.4,376.417s9.145-5.182,14.328,9.145c0,0,17.071,20.12,14.023,23.778s-14.633-8.841-14.633-8.841l-7.316-7.621s-10.365-2.744-9.45-8.536S1090.4,376.417,1090.4,376.417Z" transform="translate(-677.752 -252.176)" fill="#ffb8b8"/>
  <path id="Path_30" data-name="Path 30" d="M987.779,382.016l-21.339-6.1s-11.279-4.573-10.974-1.829,20.729,18.291,27.436,17.376S987.779,382.016,987.779,382.016Z" transform="translate(-596.467 -250.764)" fill="#ffb8b8"/>
  <path id="Path_31" data-name="Path 31" d="M1039.686,381.047s-7.011-.915-8.536.61-4.42.152-4.42.152l-4.878,8.841s-3.506,5.03-.762,9.907-1.219,11.279-1.219,11.279,21.949,0,26.521,2.439,10.084-20.349,10.084-20.349-5.664-6.935-4.139-11.2a13.8,13.8,0,0,0,.61-7.621l-6.707.61Z" transform="translate(-636.18 -251.928)" fill="#d0cde1"/>
  <path id="Path_32" data-name="Path 32" d="M983.936,685.183l2.439,23.473,9.45-4.878-3.048-20.425Z" transform="translate(-606.647 -421.323)" fill="#ffb8b8"/>
  <path id="Path_33" data-name="Path 33" d="M1076.952,679.486l7.936,21.22,7.621-5.487-9.459-20.611Z" transform="translate(-663.997 -415.931)" fill="#ffb8b8"/>
  <path id="Path_34" data-name="Path 34" d="M991.969,769.824a19.039,19.039,0,0,1-2.134,4.878c-1.524,2.439-5.182,1.219-5.182,1.219s-4.268-3.353-5.182-1.829-5.792,9.145-5.792,9.145-16.157,13.413-2.439,15.547,16.462-7.926,16.462-7.926,10.365-3.658,10.67-7.316S991.969,769.824,991.969,769.824Z" transform="translate(-602.791 -495.295)" fill="#2f2e41"/>
  <path id="Path_35" data-name="Path 35" d="M1110.282,765.239s-4.878-1.524-4.573.915,2.134,12.194,2.134,12.194-3.353,13.718,6.1,11.279,9.755-15.547,9.755-15.547,4.877-17.376,1.219-17.681-12.5-1.219-12.5-1.219S1117.9,764.02,1110.282,765.239Z" transform="translate(-689.096 -486.265)" fill="#2f2e41"/>
  <path id="Path_36" data-name="Path 36" d="M1033.177,259.6l-9.3-4.873-12.847,1.994-2.658,11.739,6.616-.255,1.848-4.313v4.242l3.053-.118,1.772-6.866,1.108,7.309,10.853-.222Z" transform="translate(-621.712 -157.055)" fill="#2f2e41"/>
  <path id="Path_37" data-name="Path 37" d="M1008.786,486.233l-25.607-5.792s-12.8,21.949-14.633,40.24-10.06,62.188,3.049,62.8,20.729.61,21.339-.61-6.4-49.385-6.4-49.385,14.937,59.14,23.168,55.177,17.376-9.145,17.071-12.194-20.12-35.362-20.12-35.362l2.744-28.046s3.353-11.279-2.439-21.644Z" transform="translate(-601.928 -316.875)" fill="#2f2e41"/>
  <path id="Path_38" data-name="Path 38" d="M1032.162,445.308H1048a55.393,55.393,0,0,0,0-18.884h-15.838A33.979,33.979,0,0,1,1032.162,445.308Z" transform="translate(-643.758 -283.571)" fill="#d8089d"/>
  <path id="Path_39" data-name="Path 39" d="M1089.887,430.214l-26.826-.61s-11.889-9.145-12.194-3.658,12.5,8.536,12.5,8.536,27.525,9.877,31.748,5.548Z" transform="translate(-655.288 -282.195)" fill="#ffb8b8"/>
  <circle id="Ellipse_3" data-name="Ellipse 3" cx="9.15" cy="9.15" r="9.15" transform="translate(134.974 57.582)" fill="#d8089d"/>
  <circle id="Ellipse_4" data-name="Ellipse 4" cx="7.477" cy="7.477" r="7.477" transform="translate(161.048 59.255)" fill="#d8089d"/>
  <circle id="Ellipse_5" data-name="Ellipse 5" cx="4.549" cy="4.549" r="4.549" transform="translate(188.378 62.183)" fill="#d8089d"/>
  <circle id="Ellipse_6" data-name="Ellipse 6" cx="4.807" cy="4.807" r="4.807" transform="translate(290.056 63.071)" fill="#d8089d"/>
  <circle id="Ellipse_7" data-name="Ellipse 7" cx="3.822" cy="3.822" r="3.822" transform="translate(303.86 64.056)" fill="#d8089d"/>
  <circle id="Ellipse_8" data-name="Ellipse 8" cx="2.506" cy="2.506" r="2.506" transform="translate(317.995 65.372)" fill="#d8089d"/>
  <circle id="Ellipse_9" data-name="Ellipse 9" cx="21.473" cy="21.473" r="21.473" transform="translate(202.077 184.834)" fill="#d8089d"/>
  <path id="Path_40" data-name="Path 40" d="M578.144,524.336l-8.01-16.177-7.968,16.2,4.5-.006v6.717h6.969v-6.727Z" transform="translate(-346.604 -313.306)" fill="#d0cde1"/>
</svg>
